<?xml version="1.0" encoding="UTF-8"?>
<svg width="32" height="32" viewBox="0 0 32 32" fill="none" xmlns="http://www.w3.org/2000/svg">
    <!-- Background Circle -->
    <circle cx="16" cy="16" r="15" fill="#2563eb" stroke="#1e40af" stroke-width="2"/>
    
    <!-- Face Outline -->
    <path d="M16 8c-4.42 0-8 3.58-8 8s3.58 8 8 8 8-3.58 8-8-3.58-8-8-8zm0 14c-3.31 0-6-2.69-6-6s2.69-6 6-6 6 2.69 6 6-2.69 6-6 6z" fill="white"/>
    
    <!-- Eyes -->
    <circle cx="12" cy="14" r="2" fill="white"/>
    <circle cx="20" cy="14" r="2" fill="white"/>
    
    <!-- Smile -->
    <path d="M12 18c0 2.21 1.79 4 4 4s4-1.79 4-4" stroke="white" stroke-width="2" stroke-linecap="round"/>
</svg> 