<?xml version="1.0" encoding="UTF-8" standalone="no"?>
<svg
   width="1280"
   height="640"
   viewBox="0 0 1280 640"
   fill="none"
   version="1.1"
   id="svg7"
   sodipodi:docname="social-card.svg"
   xml:space="preserve"
   inkscape:version="1.4 (1:1.4+202410161351+e7c3feb100)"
   inkscape:export-filename="social-card.webp"
   inkscape:export-xdpi="96"
   inkscape:export-ydpi="96"
   xmlns:inkscape="http://www.inkscape.org/namespaces/inkscape"
   xmlns:sodipodi="http://sodipodi.sourceforge.net/DTD/sodipodi-0.dtd"
   xmlns="http://www.w3.org/2000/svg"
   xmlns:svg="http://www.w3.org/2000/svg"><sodipodi:namedview
     id="namedview7"
     pagecolor="#ffffff"
     bordercolor="#000000"
     borderopacity="0.25"
     inkscape:showpageshadow="2"
     inkscape:pageopacity="0.0"
     inkscape:pagecheckerboard="0"
     inkscape:deskcolor="#d1d1d1"
     inkscape:zoom="0.64649763"
     inkscape:cx="475.6398"
     inkscape:cy="174.78796"
     inkscape:window-width="2560"
     inkscape:window-height="1376"
     inkscape:window-x="0"
     inkscape:window-y="0"
     inkscape:window-maximized="1"
     inkscape:current-layer="svg7" /><!-- Background --><path
     id="rect1"
     style="fill:#2563eb;stroke-width:1.04096"
     d="M 0,0 H 1280 V 640 H 0 Z" /><!-- Gradient Overlay --><path
     id="rect2"
     style="fill:url(#gradient);stroke-width:1.04096"
     d="M 0,0 H 1280 V 640 H 0 Z" /><!-- Logo --><!-- Text Content --><!-- Tech Stack Icons --><path
     style="color:#000000;font-style:normal;font-variant:normal;font-weight:normal;font-stretch:normal;font-size:medium;line-height:normal;font-family:sans-serif;font-variant-ligatures:normal;font-variant-position:normal;font-variant-caps:normal;font-variant-numeric:normal;font-variant-alternates:normal;font-variant-east-asian:normal;font-feature-settings:normal;font-variation-settings:normal;text-indent:0;text-align:start;text-decoration-line:none;text-decoration-style:solid;text-decoration-color:#000000;letter-spacing:normal;word-spacing:normal;text-transform:none;writing-mode:lr-tb;direction:ltr;text-orientation:mixed;dominant-baseline:auto;baseline-shift:baseline;text-anchor:start;white-space:normal;shape-padding:0;shape-margin:0;inline-size:0;clip-rule:nonzero;display:inline;overflow:visible;visibility:visible;isolation:auto;mix-blend-mode:normal;color-interpolation:sRGB;color-interpolation-filters:linearRGB;solid-color:#000000;solid-opacity:1;vector-effect:none;fill:#ffffff;fill-opacity:1;fill-rule:nonzero;stroke:none;stroke-linecap:butt;stroke-linejoin:miter;stroke-miterlimit:4;stroke-dasharray:none;stroke-dashoffset:0;stroke-opacity:1;-inkscape-stroke:none;color-rendering:auto;image-rendering:auto;shape-rendering:auto;text-rendering:auto;enable-background:accumulate;stop-color:#000000"
     d="m 304.97227,225.15039 a 76.265244,76.265244 0 0 1 -76.26524,76.26524 76.265244,76.265244 0 0 1 -76.26524,-76.26524 76.265244,76.265244 0 0 1 76.26524,-76.26524 76.265244,76.265244 0 0 1 76.26524,76.26524 z"
     id="path9" /><path
     style="color:#000000;font-style:normal;font-variant:normal;font-weight:normal;font-stretch:normal;font-size:medium;line-height:normal;font-family:sans-serif;font-variant-ligatures:normal;font-variant-position:normal;font-variant-caps:normal;font-variant-numeric:normal;font-variant-alternates:normal;font-variant-east-asian:normal;font-feature-settings:normal;font-variation-settings:normal;text-indent:0;text-align:start;text-decoration-line:none;text-decoration-style:solid;text-decoration-color:#000000;letter-spacing:normal;word-spacing:normal;text-transform:none;writing-mode:lr-tb;direction:ltr;text-orientation:mixed;dominant-baseline:auto;baseline-shift:baseline;text-anchor:start;white-space:normal;shape-padding:0;shape-margin:0;inline-size:0;clip-rule:nonzero;display:inline;overflow:visible;visibility:visible;isolation:auto;mix-blend-mode:normal;color-interpolation:sRGB;color-interpolation-filters:linearRGB;solid-color:#000000;solid-opacity:1;vector-effect:none;fill:#1e40af;fill-opacity:1;fill-rule:nonzero;stroke:none;stroke-linecap:butt;stroke-linejoin:miter;stroke-miterlimit:4;stroke-dasharray:none;stroke-dashoffset:0;stroke-opacity:1;-inkscape-stroke:none;color-rendering:auto;image-rendering:auto;shape-rendering:auto;text-rendering:auto;enable-background:accumulate;stop-color:#000000"
     d="m 228.70703,146.97852 c -43.15055,0 -78.17187,35.02132 -78.17187,78.17187 0,43.15055 35.02132,78.17187 78.17187,78.17188 43.15055,-10e-6 78.17187,-35.02133 78.17188,-78.17188 -1e-5,-43.15055 -35.02133,-78.17187 -78.17188,-78.17187 z m 0,3.8125 c 41.08971,0 74.35937,33.26966 74.35938,74.35937 -1e-5,41.08971 -33.26967,74.35937 -74.35938,74.35938 -41.08971,-10e-6 -74.35937,-33.26967 -74.35937,-74.35938 0,-41.08971 33.26966,-74.35937 74.35937,-74.35937 z"
     id="path10" /><path
     d="m 228.70703,167.95146 c -31.59287,0 -57.19893,25.60606 -57.19893,57.19893 0,31.59288 25.60606,57.19894 57.19893,57.19894 31.59288,0 57.19894,-25.60606 57.19894,-57.19894 0,-31.59287 -25.60606,-57.19893 -57.19894,-57.19893 z m 0,100.09813 c -23.68989,0 -42.8992,-19.2093 -42.8992,-42.8992 0,-23.68989 19.20931,-42.8992 42.8992,-42.8992 23.6899,0 42.8992,19.20931 42.8992,42.8992 0,23.6899 -19.2093,42.8992 -42.8992,42.8992 z"
     fill="#2563eb"
     id="path2"
     style="stroke-width:0.953316" /><path
     id="circle3"
     style="fill:#2563eb;stroke-width:0.953316"
     d="m 214.40731,210.85066 a 14.299733,14.299733 0 0 1 -14.29974,14.29974 14.299733,14.299733 0 0 1 -14.29973,-14.29974 14.299733,14.299733 0 0 1 14.29973,-14.29973 14.299733,14.299733 0 0 1 14.29974,14.29973 z" /><path
     id="circle4"
     style="fill:#2563eb;stroke-width:0.953316"
     d="m 271.60622,210.85066 a 14.299733,14.299733 0 0 1 -14.29973,14.29974 14.299733,14.299733 0 0 1 -14.29974,-14.29974 14.299733,14.299733 0 0 1 14.29974,-14.29973 14.299733,14.299733 0 0 1 14.29973,14.29973 z" /><path
     style="fill:#2563eb;stroke-linecap:round"
     d="m 200.10742,240.4043 a 3.8132601,3.8132601 0 0 0 -3.8125,3.8125 c 0,17.85687 14.55525,32.41211 32.41211,32.41211 17.85688,0 32.41211,-14.55524 32.41211,-32.41211 a 3.8132601,3.8132601 0 0 0 -3.8125,-3.8125 3.8132601,3.8132601 0 0 0 -3.8125,3.8125 c 0,13.736 -11.0511,24.78515 -24.78711,24.78515 -13.73599,0 -24.78711,-11.04915 -24.78711,-24.78515 a 3.8132601,3.8132601 0 0 0 -3.8125,-3.8125 z"
     id="path4" /><path
     d="m 372.98045,200.1806 q 0,6.3811 -4.74729,9.77202 -4.71646,3.36009 -13.87195,3.36009 -8.354,0 -13.10129,-2.95935 -4.74729,-2.95935 -6.10366,-8.97053 l 8.78557,-1.44884 q 0.89397,3.45257 3.4834,5.02472 2.58943,1.54133 7.18259,1.54133 9.52541,0 9.52541,-5.79539 0,-1.84959 -1.10976,-3.05183 -1.07893,-1.20224 -3.08265,-2.00373 -1.9729,-0.80149 -7.61416,-1.94207 -4.8706,-1.14058 -6.78185,-1.81877 -1.91124,-0.70901 -3.45257,-1.63381 -1.54133,-0.95562 -2.62026,-2.28116 -1.07893,-1.32554 -1.69546,-3.11348 -0.58571,-1.78794 -0.58571,-4.09994 0,-5.88787 4.4082,-9.00135 4.43903,-3.14431 12.88551,-3.14431 8.07656,0 12.11484,2.52778 4.0691,2.52777 5.24051,8.35399 l -8.8164,1.20224 q -0.67818,-2.80522 -2.77439,-4.22324 -2.06538,-1.41802 -5.94952,-1.41802 -8.26152,0 -8.26152,5.17886 0,1.69546 0.86314,2.77439 0.89397,1.07893 2.62026,1.8496 1.72629,0.73983 6.99763,1.88042 6.25779,1.32554 8.9397,2.46612 2.71274,1.10976 4.28489,2.62026 1.57216,1.47967 2.40448,3.57588 0.83231,2.06538 0.83231,4.77812 z m 26.51085,12.51558 v -18.71172 q 0,-8.78557 -5.05556,-8.78557 -2.62026,0 -4.28489,2.68191 -1.63381,2.68191 -1.63381,6.93598 v 17.8794 h -8.66226 v -25.89431 q 0,-2.68191 -0.0925,-4.37737 -0.0617,-1.72629 -0.15414,-3.08266 h 8.26152 q 0.0925,0.58571 0.24662,3.14431 0.15413,2.52778 0.15413,3.4834 h 0.12331 q 1.60298,-3.82249 3.97662,-5.54878 2.40447,-1.72629 5.73374,-1.72629 7.64499,0 9.2788,7.27507 h 0.18496 q 1.69546,-3.88414 4.0691,-5.57961 2.37365,-1.69546 6.04201,-1.69546 4.8706,0 7.4292,3.32927 2.55861,3.29844 2.55861,9.49458 v 21.17785 h -8.60061 v -18.71172 q 0,-8.78557 -5.05556,-8.78557 -2.52778,0 -4.16159,2.46612 -1.60298,2.4353 -1.75711,6.75102 v 18.28015 z m 44.20529,0.61653 q -4.83977,0 -7.55251,-2.62025 -2.71274,-2.65109 -2.71274,-7.42921 0,-5.17886 3.3601,-7.8916 3.39092,-2.71273 9.80285,-2.77439 l 7.18258,-0.1233 v -1.69546 q 0,-3.26762 -1.14058,-4.83977 -1.14058,-1.60299 -3.73001,-1.60299 -2.40447,0 -3.54506,1.10976 -1.10975,1.07893 -1.38719,3.60671 l -9.03219,-0.43157 q 0.83232,-4.8706 4.43903,-7.36755 3.63753,-2.52778 9.89533,-2.52778 6.31944,0 9.74119,3.11348 3.42175,3.11349 3.42175,8.84723 v 12.14566 q 0,2.80522 0.61653,3.88415 0.64736,1.0481 2.12703,1.0481 0.98645,0 1.91125,-0.18496 v 4.68564 q -0.77066,0.18496 -1.3872,0.33909 -0.61653,0.15414 -1.23306,0.24662 -0.61653,0.0925 -1.32554,0.15413 -0.67818,0.0617 -1.60298,0.0617 -3.26762,0 -4.83977,-1.60298 -1.54133,-1.60298 -1.8496,-4.71646 h -0.18496 q -3.63753,6.56605 -10.97425,6.56605 z m 10.08028,-16.06064 -4.43902,0.0617 q -3.021,0.1233 -4.28489,0.67818 -1.26389,0.52405 -1.94208,1.63381 -0.64735,1.10976 -0.64735,2.95935 0,2.37364 1.07893,3.54505 1.10975,1.14059 2.92852,1.14059 2.03455,0 3.69919,-1.10976 1.69546,-1.10976 2.65108,-3.05183 0.95562,-1.9729 0.95562,-4.16158 z m 17.32454,15.44411 v -25.52439 q 0,-2.74357 -0.0925,-4.56233 -0.0617,-1.8496 -0.15414,-3.26762 h 8.26152 q 0.0925,0.55488 0.24661,3.39092 0.15414,2.80522 0.15414,3.73002 h 0.1233 q 1.26389,-3.51423 2.25034,-4.93225 0.98645,-1.44885 2.34282,-2.12704 1.35637,-0.70901 3.39092,-0.70901 1.66464,0 2.68191,0.4624 v 7.24424 q -2.0962,-0.46239 -3.69918,-0.46239 -3.23679,0 -5.05556,2.62025 -1.78794,2.62026 -1.78794,7.7683 v 16.3689 z m 33.10772,0.55488 q -3.82249,0 -5.88787,-2.06538 -2.06538,-2.09621 -2.06538,-6.31944 v -19.66735 h -4.22324 v -5.85705 h 4.65481 l 2.71274,-7.82995 h 5.42548 v 7.82995 h 6.31944 v 5.85705 h -6.31944 v 17.32453 q 0,2.43529 0.92479,3.6067 0.9248,1.14059 2.86687,1.14059 1.01728,0 2.8977,-0.43157 v 5.36382 q -3.20596,1.0481 -7.3059,1.0481 z m 59.68023,-0.55488 -10.08029,-16.49221 h -10.66599 v 16.49221 h -9.09384 v -43.43463 h 21.7019 q 7.7683,0 11.99154,3.3601 4.22324,3.32927 4.22324,9.58706 0,4.56233 -2.58944,7.8916 -2.58943,3.29844 -6.99763,4.34655 l 11.74493,18.24932 z m -1.07893,-30.11755 q 0,-6.25779 -8.01491,-6.25779 h -11.65244 v 12.82385 h 11.89905 q 3.8225,0 5.7954,-1.72629 1.9729,-1.72629 1.9729,-4.83977 z m 30.67242,30.73408 q -7.52168,0 -11.55996,-4.43902 -4.03828,-4.46985 -4.03828,-13.00881 0,-8.26152 4.09994,-12.70055 4.09993,-4.43902 11.62161,-4.43902 7.18259,0 10.97426,4.77812 3.79166,4.74729 3.79166,13.9336 v 0.24662 h -21.39363 q 0,4.87059 1.78794,7.36754 1.81877,2.46613 5.14804,2.46613 4.59315,0 5.79539,-3.97663 l 8.16904,0.70901 q -3.54506,9.06301 -14.39601,9.06301 z m 0,-29.1311 q -3.05183,0 -4.71646,2.12703 -1.63381,2.12704 -1.72629,5.94953 h 12.94716 q -0.24661,-4.03828 -1.94208,-6.04201 -1.69546,-2.03455 -4.56233,-2.03455 z m 49.56911,18.77338 q 0,4.83977 -3.97662,7.61416 -3.9458,2.74356 -10.94343,2.74356 -6.87433,0 -10.54269,-2.15786 -3.63753,-2.18868 -4.83977,-6.78184 l 7.61416,-1.14058 q 0.64736,2.37364 2.21951,3.36009 1.60299,0.98645 5.54879,0.98645 3.63753,0 5.30216,-0.92479 1.66464,-0.9248 1.66464,-2.8977 0,-1.60298 -1.35637,-2.52778 -1.32554,-0.95562 -4.53151,-1.60298 -7.33672,-1.44885 -9.89532,-2.68191 -2.55861,-1.26389 -3.91498,-3.23679 -1.32554,-2.00373 -1.32554,-4.90142 0,-4.77812 3.66836,-7.42921 3.69919,-2.68191 10.45021,-2.68191 5.94953,0 9.55623,2.312 3.63754,2.31199 4.53151,6.68936 l -7.67582,0.80149 q -0.36992,-2.03455 -1.81876,-3.021 -1.44885,-1.01728 -4.59316,-1.01728 -3.08266,0 -4.62399,0.80149 -1.54132,0.77067 -1.54132,2.62026 0,1.44885 1.17141,2.31199 1.20223,0.83232 4.00745,1.3872 3.91497,0.80149 6.93598,1.66463 3.05182,0.83232 4.87059,2.00373 1.8496,1.17141 2.92853,3.021 1.10975,1.81877 1.10975,4.68564 z m 20.65379,10.35772 q -7.52168,0 -11.55996,-4.43902 -4.03828,-4.46985 -4.03828,-13.00881 0,-8.26152 4.09994,-12.70055 4.09993,-4.43902 11.62161,-4.43902 7.18259,0 10.97426,4.77812 3.79166,4.74729 3.79166,13.9336 v 0.24662 h -21.39363 q 0,4.87059 1.78794,7.36754 1.81877,2.46613 5.14804,2.46613 4.59315,0 5.79539,-3.97663 l 8.16904,0.70901 q -3.54506,9.06301 -14.39601,9.06301 z m 0,-29.1311 q -3.05183,0 -4.71646,2.12703 -1.63381,2.12704 -1.72629,5.94953 h 12.94716 q -0.24661,-4.03828 -1.94207,-6.04201 -1.69547,-2.03455 -4.56234,-2.03455 z m 21.45529,28.51457 v -25.52439 q 0,-2.74357 -0.0925,-4.56233 -0.0617,-1.8496 -0.15414,-3.26762 h 8.26152 q 0.0925,0.55488 0.24662,3.39092 0.15413,2.80522 0.15413,3.73002 h 0.1233 q 1.26389,-3.51423 2.25034,-4.93225 0.98645,-1.44885 2.34282,-2.12704 1.35637,-0.70901 3.39092,-0.70901 1.66464,0 2.68192,0.4624 v 7.24424 q -2.09621,-0.46239 -3.69919,-0.46239 -3.23679,0 -5.05556,2.62025 -1.78794,2.62026 -1.78794,7.7683 v 16.3689 z m 42.6948,0 h -10.35772 l -11.92988,-33.35434 h 9.15549 l 5.82622,18.65007 q 0.4624,1.54133 2.18868,7.70664 0.30827,-1.26389 1.26389,-4.43902 0.95563,-3.17514 7.09011,-21.91769 h 9.06301 z m 24.69207,0.61653 q -4.83977,0 -7.5525,-2.62025 -2.71274,-2.65109 -2.71274,-7.42921 0,-5.17886 3.36009,-7.8916 3.39093,-2.71273 9.80285,-2.77439 l 7.18259,-0.1233 v -1.69546 q 0,-3.26762 -1.14058,-4.83977 -1.14059,-1.60299 -3.73002,-1.60299 -2.40447,0 -3.54505,1.10976 -1.10976,1.07893 -1.3872,3.60671 l -9.03218,-0.43157 q 0.83232,-4.8706 4.43903,-7.36755 3.63753,-2.52778 9.89532,-2.52778 6.31945,0 9.7412,3.11348 3.42174,3.11349 3.42174,8.84723 v 12.14566 q 0,2.80522 0.61654,3.88415 0.64735,1.0481 2.12703,1.0481 0.98645,0 1.91125,-0.18496 v 4.68564 q -0.77067,0.18496 -1.3872,0.33909 -0.61653,0.15414 -1.23306,0.24662 -0.61653,0.0925 -1.32554,0.15413 -0.67819,0.0617 -1.60299,0.0617 -3.26761,0 -4.83977,-1.60298 -1.54132,-1.60298 -1.84959,-4.71646 h -0.18496 q -3.63753,6.56605 -10.97426,6.56605 z m 10.08029,-16.06064 -4.43902,0.0617 q -3.02101,0.1233 -4.2849,0.67818 -1.26389,0.52405 -1.94207,1.63381 -0.64736,1.10976 -0.64736,2.95935 0,2.37364 1.07893,3.54505 1.10976,1.14059 2.92852,1.14059 2.03456,0 3.69919,-1.10976 1.69546,-1.10976 2.65109,-3.05183 0.95562,-1.9729 0.95562,-4.16158 z m 25.86348,15.99899 q -3.82249,0 -5.88787,-2.06538 -2.06538,-2.09621 -2.06538,-6.31944 v -19.66735 h -4.22324 v -5.85705 H 780.97 l 2.71274,-7.82995 h 5.42547 v 7.82995 h 6.31945 v 5.85705 h -6.31945 v 17.32453 q 0,2.43529 0.9248,3.6067 0.9248,1.14059 2.86687,1.14059 1.01728,0 2.8977,-0.43157 v 5.36382 q -3.20597,1.0481 -7.3059,1.0481 z m 12.48476,-39.9204 v -6.3811 h 8.66226 v 6.3811 z m 0,39.36552 v -33.35434 h 8.66226 v 33.35434 z m 49.23002,-16.70799 q 0,8.10738 -4.50068,12.73137 -4.50068,4.59315 -12.45393,4.59315 -7.79912,0 -12.23815,-4.62398 -4.43902,-4.62399 -4.43902,-12.70054 0,-8.04574 4.43902,-12.6389 4.43903,-4.62398 12.42311,-4.62398 8.16904,0 12.45393,4.46985 4.31572,4.43903 4.31572,12.79303 z m -9.06301,0 q 0,-5.94953 -1.94208,-8.63144 -1.94207,-2.68191 -5.64126,-2.68191 -7.8916,0 -7.8916,11.31335 0,5.5796 1.91125,8.50813 1.94207,2.89769 5.57961,2.89769 7.98408,0 7.98408,-11.40582 z m 37.54675,16.70799 v -18.71172 q 0,-8.78557 -5.94953,-8.78557 -3.14431,0 -5.08638,2.71274 -1.91125,2.68191 -1.91125,6.90515 v 17.8794 h -8.66226 v -25.89431 q 0,-2.68191 -0.0925,-4.37737 -0.0617,-1.72629 -0.15414,-3.08266 h 8.26152 q 0.0925,0.58571 0.24661,3.14431 0.15414,2.52778 0.15414,3.4834 h 0.1233 q 1.75712,-3.82249 4.4082,-5.54878 2.65109,-1.72629 6.31945,-1.72629 5.30217,0 8.13821,3.26762 2.83604,3.26761 2.83604,9.55623 v 21.17785 z m 69.72971,-12.51558 q 0,6.3811 -4.74729,9.77202 -4.71647,3.36009 -13.87196,3.36009 -8.354,0 -13.10129,-2.95935 -4.74729,-2.95935 -6.10366,-8.97053 l 8.78557,-1.44884 q 0.89398,3.45257 3.48341,5.02472 2.58943,1.54133 7.18259,1.54133 9.5254,0 9.5254,-5.79539 0,-1.84959 -1.10975,-3.05183 -1.07893,-1.20224 -3.08266,-2.00373 -1.9729,-0.80149 -7.61416,-1.94207 -4.8706,-1.14058 -6.78184,-1.81877 -1.91125,-0.70901 -3.45258,-1.63381 -1.54133,-0.95562 -2.62026,-2.28116 -1.07893,-1.32554 -1.69546,-3.11348 -0.5857,-1.78794 -0.5857,-4.09994 0,-5.88787 4.4082,-9.00135 4.43902,-3.14431 12.8855,-3.14431 8.07656,0 12.11484,2.52778 4.0691,2.52777 5.24051,8.35399 l -8.81639,1.20224 q -0.67819,-2.80522 -2.77439,-4.22324 -2.06538,-1.41802 -5.94953,-1.41802 -8.26152,0 -8.26152,5.17886 0,1.69546 0.86314,2.77439 0.89398,1.07893 2.62026,1.8496 1.72629,0.73983 6.99763,1.88042 6.25779,1.32554 8.93971,2.46612 2.71273,1.10976 4.28489,2.62026 1.57215,1.47967 2.40447,3.57588 0.83232,2.06538 0.83232,4.77812 z m 11.19002,25.61687 q -3.11348,0 -5.4563,-0.40074 v -6.16532 q 1.63381,0.24662 2.99018,0.24662 1.84959,0 3.05183,-0.58571 1.23306,-0.5857 2.18868,-1.94207 0.98645,-1.35637 2.18869,-4.59316 l -13.19377,-33.01525 h 9.15549 l 5.24052,15.62907 q 1.23306,3.36009 3.11348,10.29607 l 0.77066,-2.92852 2.00373,-7.24425 4.93225,-15.75237 h 9.06301 l -13.19377,35.11146 q -2.65108,6.41192 -5.51795,8.87805 -2.83605,2.46612 -7.33673,2.46612 z m 58.90957,-22.84248 q 0,4.83977 -3.9766,7.61416 -3.9458,2.74356 -10.9435,2.74356 -6.87429,0 -10.54265,-2.15786 -3.63753,-2.18868 -4.83977,-6.78184 l 7.61416,-1.14058 q 0.64736,2.37364 2.21951,3.36009 1.60298,0.98645 5.54875,0.98645 3.6376,0 5.3022,-0.92479 1.6646,-0.9248 1.6646,-2.8977 0,-1.60298 -1.3563,-2.52778 -1.3256,-0.95562 -4.5315,-1.60298 -7.33676,-1.44885 -9.89536,-2.68191 -2.55861,-1.26389 -3.91498,-3.23679 -1.32554,-2.00373 -1.32554,-4.90142 0,-4.77812 3.66836,-7.42921 3.69919,-2.68191 10.45022,-2.68191 5.9495,0 9.5562,2.312 3.6376,2.31199 4.5315,6.68936 l -7.6758,0.80149 q -0.3699,-2.03455 -1.8188,-3.021 -1.4488,-1.01728 -4.5931,-1.01728 -3.0827,0 -4.624,0.80149 -1.54132,0.77067 -1.54132,2.62026 0,1.44885 1.1714,2.31199 1.20224,0.83232 4.00742,1.3872 3.915,0.80149 6.936,1.66463 3.0518,0.83232 4.8706,2.00373 1.8496,1.17141 2.9285,3.021 1.1098,1.81877 1.1098,4.68564 z m 15.5366,10.29607 q -3.8225,0 -5.8879,-2.06538 -2.0654,-2.09621 -2.0654,-6.31944 v -19.66735 h -4.2232 v -5.85705 h 4.6548 l 2.7127,-7.82995 h 5.4255 v 7.82995 h 6.3195 v 5.85705 h -6.3195 v 17.32453 q 0,2.43529 0.9248,3.6067 0.9248,1.14059 2.8669,1.14059 1.0172,0 2.8977,-0.43157 v 5.36382 q -3.206,1.0481 -7.3059,1.0481 z m 26.1409,0.0617 q -7.5217,0 -11.5599,-4.43902 -4.0383,-4.46985 -4.0383,-13.00881 0,-8.26152 4.0999,-12.70055 4.1,-4.43902 11.6216,-4.43902 7.1826,0 10.9743,4.77812 3.7917,4.74729 3.7917,13.9336 v 0.24662 h -21.3937 q 0,4.87059 1.788,7.36754 1.8187,2.46613 5.148,2.46613 4.5932,0 5.7954,-3.97663 l 8.169,0.70901 q -3.545,9.06301 -14.396,9.06301 z m 0,-29.1311 q -3.0518,0 -4.7164,2.12703 -1.6338,2.12704 -1.7263,5.94953 h 12.9471 q -0.2466,-4.03828 -1.942,-6.04201 -1.6955,-2.03455 -4.5624,-2.03455 z m 41.0918,28.51457 v -18.71172 q 0,-8.78557 -5.0555,-8.78557 -2.6203,0 -4.2849,2.68191 -1.6338,2.68191 -1.6338,6.93598 v 17.8794 h -8.6623 v -25.89431 q 0,-2.68191 -0.092,-4.37737 -0.062,-1.72629 -0.1541,-3.08266 h 8.2615 q 0.092,0.58571 0.2466,3.14431 0.1542,2.52778 0.1542,3.4834 h 0.1233 q 1.6029,-3.82249 3.9766,-5.54878 2.4045,-1.72629 5.7337,-1.72629 7.645,0 9.2788,7.27507 h 0.185 q 1.6954,-3.88414 4.0691,-5.57961 2.3736,-1.69546 6.042,-1.69546 4.8706,0 7.4292,3.32927 2.5586,3.29844 2.5586,9.49458 v 21.17785 h -8.6006 v -18.71172 q 0,-8.78557 -5.0556,-8.78557 -2.5277,0 -4.1615,2.46612 -1.603,2.4353 -1.7572,6.75102 v 18.28015 z"
     id="text4"
     style="font-weight:bold;font-size:63.1328px;font-family:Arial, sans-serif;fill:#ffffff;stroke-width:0.876845"
     aria-label="Smart Reservation System" /><path
     d="m 338.87086,281.06783 v 8.07656 h 12.11484 v 2.4353 h -12.11484 v 8.80099 h -2.94393 v -21.71732 h 15.42869 v 2.40447 z m 20.12975,19.62111 q -2.51237,0 -3.77626,-1.32554 -1.26389,-1.32554 -1.26389,-3.63753 0,-2.58944 1.69547,-3.97663 1.71087,-1.3872 5.50254,-1.47968 l 3.74542,-0.0616 v -0.90938 q 0,-2.03456 -0.86314,-2.91311 -0.86314,-0.87856 -2.71274,-0.87856 -1.865,0 -2.71273,0.63194 -0.84774,0.63195 -1.01728,2.01914 l -2.8977,-0.26202 q 0.70901,-4.50068 6.68937,-4.50068 3.14431,0 4.73187,1.44885 1.58757,1.43343 1.58757,4.16158 v 7.18259 q 0,1.23307 0.32368,1.86501 0.32368,0.61653 1.23306,0.61653 0.40075,0 0.90939,-0.10789 v 1.72629 q -1.04811,0.24661 -2.14245,0.24661 -1.54133,0 -2.25034,-0.80149 -0.6936,-0.81691 -0.78608,-2.54319 h -0.0925 q -1.06351,1.91124 -2.48153,2.71273 -1.40261,0.78608 -3.42175,0.78608 z m 0.63194,-2.08079 q 1.52592,0 2.71274,-0.6936 1.18682,-0.6936 1.86501,-1.89583 0.69359,-1.21765 0.69359,-2.49695 v -1.37179 l -3.03641,0.0617 q -1.95749,0.0308 -2.97477,0.40074 -1.00186,0.36992 -1.54132,1.14059 -0.53947,0.77066 -0.53947,2.01914 0,1.35636 0.72443,2.0962 0.73983,0.73984 2.0962,0.73984 z m 14.78134,-6.64313 q 0,3.32927 1.0481,4.93225 1.0481,1.60299 3.15972,1.60299 1.47968,0 2.46613,-0.80149 1.00186,-0.8015 1.23306,-2.46613 l 2.80522,0.18496 q -0.32368,2.40447 -2.04997,3.83791 -1.72629,1.43343 -4.37737,1.43343 -3.49881,0 -5.34841,-2.2041 -1.83418,-2.21951 -1.83418,-6.45816 0,-4.20783 1.8496,-6.41193 1.84959,-2.21951 5.30216,-2.21951 2.55861,0 4.23866,1.32554 1.69546,1.32554 2.12703,3.65295 l -2.85146,0.21579 q -0.21578,-1.3872 -1.09434,-2.2041 -0.87856,-0.81691 -2.49695,-0.81691 -2.2041,0 -3.19055,1.46426 -0.98645,1.46427 -0.98645,4.93225 z m 15.79861,0.66278 q 0,2.86687 1.18682,4.42361 1.18683,1.55674 3.46799,1.55674 1.80336,0 2.88229,-0.72443 1.09434,-0.72442 1.47967,-1.83418 l 2.4353,0.6936 q -1.49509,3.9458 -6.79726,3.9458 -3.69919,0 -5.64126,-2.2041 -1.92666,-2.2041 -1.92666,-6.55064 0,-4.13076 1.92666,-6.33486 1.94207,-2.2041 5.53337,-2.2041 7.35213,0 7.35213,8.86264 v 0.36992 z m 9.03218,-2.12704 q -0.2312,-2.63567 -1.34095,-3.8379 -1.10976,-1.21765 -3.19055,-1.21765 -2.01914,0 -3.20596,1.35637 -1.17141,1.34095 -1.26389,3.69918 z m 30.9807,9.87992 -5.64126,-9.01677 h -6.76643 v 9.01677 h -2.94394 v -21.71732 h 10.219 q 3.66836,0 5.65668,1.64922 2.00372,1.63381 2.00372,4.56234 0,2.41988 -1.41802,4.0691 -1.40261,1.64922 -3.88414,2.08079 l 6.16531,9.35587 z m -0.43158,-15.47494 q 0,-1.89583 -1.29471,-2.88228 -1.2793,-1.00187 -3.69919,-1.00187 h -6.98221 v 8.01491 h 7.10552 q 2.3274,0 3.59129,-1.07893 1.2793,-1.09434 1.2793,-3.05183 z m 9.54083,7.72206 q 0,2.86687 1.18682,4.42361 1.18683,1.55674 3.46799,1.55674 1.80336,0 2.88229,-0.72443 1.09434,-0.72442 1.47967,-1.83418 l 2.4353,0.6936 q -1.49509,3.9458 -6.79726,3.9458 -3.69918,0 -5.64126,-2.2041 -1.92666,-2.2041 -1.92666,-6.55064 0,-4.13076 1.92666,-6.33486 1.94208,-2.2041 5.53337,-2.2041 7.35214,0 7.35214,8.86264 v 0.36992 z m 9.03219,-2.12704 q -0.2312,-2.63567 -1.34096,-3.8379 -1.10976,-1.21765 -3.19055,-1.21765 -2.01914,0 -3.20596,1.35637 -1.17141,1.34095 -1.26389,3.69918 z m 8.50812,1.46426 q 0,3.32927 1.04811,4.93225 1.0481,1.60299 3.15972,1.60299 1.47967,0 2.46612,-0.80149 1.00187,-0.8015 1.23307,-2.46613 l 2.80521,0.18496 q -0.32367,2.40447 -2.04996,3.83791 -1.72629,1.43343 -4.37737,1.43343 -3.49882,0 -5.34841,-2.2041 -1.83418,-2.21951 -1.83418,-6.45816 0,-4.20783 1.84959,-6.41193 1.84959,-2.21951 5.30217,-2.21951 2.5586,0 4.23865,1.32554 1.69546,1.32554 2.12703,3.65295 l -2.85145,0.21579 q -0.21579,-1.3872 -1.09435,-2.2041 -0.87855,-0.81691 -2.49695,-0.81691 -2.2041,0 -3.19055,1.46426 -0.98645,1.46427 -0.98645,4.93225 z m 27.77474,0.0617 q 0,4.37737 -1.92666,6.51982 -1.92666,2.14244 -5.59502,2.14244 -3.65295,0 -5.51796,-2.21951 -1.865,-2.23493 -1.865,-6.44275 0,-8.63144 7.47544,-8.63144 3.82249,0 5.62585,2.11162 1.80335,2.09621 1.80335,6.51982 z m -2.91311,0 q 0,-3.45258 -1.03269,-5.00932 -1.01728,-1.57215 -3.43716,-1.57215 -2.4353,0 -3.52964,1.60298 -1.07893,1.58757 -1.07893,4.97849 0,3.29844 1.06351,4.96307 1.07893,1.64923 3.37551,1.64923 2.49695,0 3.56047,-1.60299 1.07893,-1.60298 1.07893,-5.00931 z m 12.68513,14.90464 q -2.72815,0 -4.34655,-1.07893 -1.61839,-1.06352 -2.08079,-3.03642 l 2.7898,-0.40074 q 0.27744,1.156 1.21765,1.77253 0.95563,0.63194 2.49695,0.63194 4.14618,0 4.14618,-4.85518 v -2.68191 h -0.0308 q -0.78608,1.60298 -2.15786,2.41988 -1.37178,0.80149 -3.20596,0.80149 -3.06724,0 -4.51609,-2.03455 -1.43344,-2.03455 -1.43344,-6.39651 0,-4.42361 1.54133,-6.51982 1.55674,-2.11162 4.71646,-2.11162 1.77253,0 3.06725,0.8169 1.31013,0.80149 2.01914,2.29658 h 0.0308 q 0,-0.4624 0.0617,-1.60298 0.0616,-1.14058 0.1233,-1.24847 h 2.63567 q -0.0925,0.83231 -0.0925,3.45257 v 12.74678 q 0,7.02846 -6.98221,7.02846 z m 4.22324,-14.88923 q 0,-2.03455 -0.55488,-3.49881 -0.55488,-1.47968 -1.57216,-2.25034 -1.00186,-0.78608 -2.28116,-0.78608 -2.12703,0 -3.09807,1.54133 -0.97104,1.54133 -0.97104,4.9939 0,3.42175 0.90939,4.91684 0.90938,1.49509 3.11348,1.49509 1.31013,0 2.3274,-0.77067 1.01728,-0.77066 1.57216,-2.2041 0.55488,-1.44885 0.55488,-3.43716 z m 17.60196,8.33859 v -10.57351 q 0,-1.64923 -0.32368,-2.55861 -0.32368,-0.90938 -1.03269,-1.31013 -0.70901,-0.40074 -2.08079,-0.40074 -2.00373,0 -3.15972,1.37178 -1.156,1.37178 -1.156,3.80708 v 9.66413 h -2.77439 v -13.11671 q 0,-2.91311 -0.0925,-3.56046 h 2.62026 q 0.0154,0.0771 0.0308,0.41615 0.0154,0.3391 0.0308,0.78608 0.0308,0.43157 0.0617,1.64922 h 0.0462 q 0.95562,-1.72628 2.20409,-2.4353 1.26389,-0.72442 3.1289,-0.72442 2.74356,0 4.00745,1.37178 1.27931,1.35637 1.27931,4.50068 v 11.11298 z m 6.95139,-20.22223 v -2.65108 h 2.77439 v 2.65108 z m 0,20.22223 v -16.67717 h 2.77439 v 16.67717 z m 13.44038,-0.12331 q -1.37178,0.36992 -2.80521,0.36992 -3.32927,0 -3.32927,-3.77626 v -11.12838 h -1.92666 v -2.01914 h 2.03455 l 0.8169,-3.73002 h 1.8496 v 3.73002 h 3.08266 v 2.01914 h -3.08266 v 10.52727 q 0,1.20223 0.38533,1.69546 0.40075,0.47781 1.37178,0.47781 0.55488,0 1.60298,-0.21579 z m 2.34282,-20.09892 v -2.65108 h 2.77439 v 2.65108 z m 0,20.22223 v -16.67717 h 2.77439 v 16.67717 z m 21.13161,-8.354 q 0,4.37737 -1.92666,6.51982 -1.92666,2.14244 -5.59502,2.14244 -3.65294,0 -5.51795,-2.21951 -1.86501,-2.23493 -1.86501,-6.44275 0,-8.63144 7.47544,-8.63144 3.8225,0 5.62585,2.11162 1.80335,2.09621 1.80335,6.51982 z m -2.91311,0 q 0,-3.45258 -1.03269,-5.00932 -1.01727,-1.57215 -3.43716,-1.57215 -2.4353,0 -3.52964,1.60298 -1.07893,1.58757 -1.07893,4.97849 0,3.29844 1.06352,4.96307 1.07893,1.64923 3.37551,1.64923 2.49695,0 3.56046,-1.60299 1.07893,-1.60298 1.07893,-5.00931 z m 16.95461,8.354 v -10.57351 q 0,-1.64923 -0.32368,-2.55861 -0.32368,-0.90938 -1.03269,-1.31013 -0.70901,-0.40074 -2.08079,-0.40074 -2.00373,0 -3.15972,1.37178 -1.156,1.37178 -1.156,3.80708 v 9.66413 h -2.77439 v -13.11671 q 0,-2.91311 -0.0925,-3.56046 h 2.62026 q 0.0154,0.0771 0.0308,0.41615 0.0154,0.3391 0.0308,0.78608 0.0308,0.43157 0.0616,1.64922 h 0.0462 q 0.95563,-1.72628 2.2041,-2.4353 1.26389,-0.72442 3.1289,-0.72442 2.74356,0 4.00745,1.37178 1.27931,1.35637 1.27931,4.50068 v 11.11298 z m 32.99983,-6.11908 q 0,2.8977 -2.11162,4.51609 -2.11161,1.60299 -5.87246,1.60299 h -8.81639 v -21.71732 h 7.8916 q 7.64499,0 7.64499,5.27134 0,1.92667 -1.07893,3.23679 -1.07893,1.31013 -3.05183,1.75712 2.58943,0.30826 3.99204,1.7417 1.4026,1.41802 1.4026,3.59129 z m -4.22323,-9.97239 q 0,-1.75711 -1.20224,-2.51236 -1.20224,-0.75526 -3.4834,-0.75526 h -4.94767 v 6.87433 h 4.94767 q 2.35823,0 3.51423,-0.87856 1.17141,-0.89397 1.17141,-2.72815 z m 1.24847,9.74119 q 0,-3.8379 -5.39465,-3.8379 h -5.48713 v 7.82994 h 5.71833 q 2.69733,0 3.93039,-1.00186 1.23306,-1.00186 1.23306,-2.99018 z m 11.02049,6.65854 q -2.51237,0 -3.77625,-1.32554 -1.26389,-1.32554 -1.26389,-3.63753 0,-2.58944 1.69546,-3.97663 1.71087,-1.3872 5.50254,-1.47968 l 3.74543,-0.0616 v -0.90938 q 0,-2.03456 -0.86315,-2.91311 -0.86314,-0.87856 -2.71273,-0.87856 -1.86501,0 -2.71274,0.63194 -0.84773,0.63195 -1.01728,2.01914 l -2.8977,-0.26202 q 0.70902,-4.50068 6.68937,-4.50068 3.14431,0 4.73188,1.44885 1.58756,1.43343 1.58756,4.16158 v 7.18259 q 0,1.23307 0.32368,1.86501 0.32368,0.61653 1.23307,0.61653 0.40074,0 0.90938,-0.10789 v 1.72629 q -1.0481,0.24661 -2.14245,0.24661 -1.54133,0 -2.25034,-0.80149 -0.69359,-0.81691 -0.78607,-2.54319 h -0.0925 q -1.06352,1.91124 -2.48154,2.71273 -1.40261,0.78608 -3.42175,0.78608 z m 0.63194,-2.08079 q 1.52592,0 2.71274,-0.6936 1.18682,-0.6936 1.86501,-1.89583 0.6936,-1.21765 0.6936,-2.49695 v -1.37179 l -3.03642,0.0617 q -1.95749,0.0308 -2.97476,0.40074 -1.00187,0.36992 -1.54133,1.14059 -0.53947,0.77066 -0.53947,2.01914 0,1.35636 0.72443,2.0962 0.73984,0.73984 2.0962,0.73984 z m 25.1853,-2.83604 q 0,2.35823 -1.78794,3.63753 -1.77252,1.2793 -4.97849,1.2793 -3.11348,0 -4.80894,-1.01727 -1.68005,-1.03269 -2.18869,-3.20597 l 2.45072,-0.47781 q 0.3545,1.34096 1.46426,1.9729 1.10975,0.61653 3.08265,0.61653 2.11162,0 3.08266,-0.64736 0.98645,-0.64735 0.98645,-1.94207 0,-0.98645 -0.67818,-1.60298 -0.67819,-0.61653 -2.18869,-1.01728 l -1.98831,-0.52405 q -2.38906,-0.61653 -3.40634,-1.20223 -1.00186,-0.60112 -1.57215,-1.44885 -0.5703,-0.84773 -0.5703,-2.0808 0,-2.28116 1.6184,-3.46798 1.63381,-1.20224 4.74729,-1.20224 2.75898,0 4.37737,0.97104 1.63381,0.97103 2.06538,3.11348 l -2.49695,0.30827 q -0.2312,-1.10976 -1.24848,-1.69547 -1.00186,-0.60111 -2.69732,-0.60111 -1.88042,0 -2.77439,0.57029 -0.89397,0.57029 -0.89397,1.72629 0,0.70901 0.36992,1.1714 0.36992,0.4624 1.09434,0.78608 0.72442,0.32368 3.05183,0.89397 2.2041,0.55488 3.17514,1.03269 0.97103,0.4624 1.52591,1.03269 0.57029,0.57029 0.87856,1.32554 0.30826,0.73984 0.30826,1.69547 z m 5.39466,-3.14431 q 0,2.86687 1.18682,4.42361 1.18682,1.55674 3.46799,1.55674 1.80335,0 2.88228,-0.72443 1.09434,-0.72442 1.47967,-1.83418 l 2.4353,0.6936 q -1.49508,3.9458 -6.79725,3.9458 -3.69919,0 -5.64126,-2.2041 -1.92667,-2.2041 -1.92667,-6.55064 0,-4.13076 1.92667,-6.33486 1.94207,-2.2041 5.53336,-2.2041 7.35214,0 7.35214,8.86264 v 0.36992 z m 9.03218,-2.12704 q -0.2312,-2.63567 -1.34096,-3.8379 -1.10975,-1.21765 -3.19055,-1.21765 -2.01914,0 -3.20596,1.35637 -1.17141,1.34095 -1.26389,3.69918 z m 16.92378,7.19801 q -0.77067,1.60298 -2.04997,2.29657 -1.26389,0.6936 -3.14431,0.6936 -3.15972,0 -4.65481,-2.12703 -1.47967,-2.12703 -1.47967,-6.44275 0,-8.72392 6.13448,-8.72392 1.89584,0 3.15973,0.6936 1.26388,0.6936 2.03455,2.2041 h 0.0308 l -0.0308,-1.86501 v -6.92056 h 2.77439 v 19.43614 q 0,2.60485 0.0925,3.43717 h -2.65109 q -0.0462,-0.24662 -0.10789,-1.14059 -0.0462,-0.89397 -0.0462,-1.54132 z m -8.41565,-5.67209 q 0,3.49881 0.92479,5.00931 0.9248,1.51051 3.00559,1.51051 2.35824,0 3.42175,-1.63381 1.06352,-1.63381 1.06352,-5.07097 0,-3.31386 -1.06352,-4.85519 -1.06351,-1.54132 -3.39092,-1.54132 -2.09621,0 -3.03642,1.55674 -0.92479,1.54133 -0.92479,5.02473 z m 40.0283,8.354 -5.64126,-9.01677 h -6.76643 v 9.01677 h -2.94394 v -21.71732 h 10.21901 q 3.66836,0 5.65667,1.64922 2.00373,1.63381 2.00373,4.56234 0,2.41988 -1.41802,4.0691 -1.40261,1.64922 -3.88415,2.08079 l 6.16531,9.35587 z m -0.43157,-15.47494 q 0,-1.89583 -1.29472,-2.88228 -1.2793,-1.00187 -3.69918,-1.00187 h -6.98222 v 8.01491 h 7.10552 q 2.32741,0 3.5913,-1.07893 1.2793,-1.09434 1.2793,-3.05183 z m 9.54081,7.72206 q 0,2.86687 1.18682,4.42361 1.18683,1.55674 3.46799,1.55674 1.80336,0 2.88229,-0.72443 1.09434,-0.72442 1.47967,-1.83418 l 2.4353,0.6936 q -1.49509,3.9458 -6.79726,3.9458 -3.69918,0 -5.64126,-2.2041 -1.92666,-2.2041 -1.92666,-6.55064 0,-4.13076 1.92666,-6.33486 1.94208,-2.2041 5.53337,-2.2041 7.35213,0 7.35213,8.86264 v 0.36992 z m 9.03218,-2.12704 q -0.23119,-2.63567 -1.34095,-3.8379 -1.10976,-1.21765 -3.19055,-1.21765 -2.01914,0 -3.20596,1.35637 -1.17141,1.34095 -1.26389,3.69918 z m 18.9121,5.27135 q 0,2.35823 -1.78794,3.63753 -1.77253,1.2793 -4.97849,1.2793 -3.11348,0 -4.80895,-1.01727 -1.68004,-1.03269 -2.18868,-3.20597 l 2.45071,-0.47781 q 0.35451,1.34096 1.46426,1.9729 1.10976,0.61653 3.08266,0.61653 2.11162,0 3.08265,-0.64736 0.98645,-0.64735 0.98645,-1.94207 0,-0.98645 -0.67818,-1.60298 -0.67818,-0.61653 -2.18869,-1.01728 l -1.98831,-0.52405 q -2.38906,-0.61653 -3.40633,-1.20223 -1.00187,-0.60112 -1.57216,-1.44885 -0.57029,-0.84773 -0.57029,-2.0808 0,-2.28116 1.61839,-3.46798 1.63381,-1.20224 4.74729,-1.20224 2.75898,0 4.37738,0.97104 1.6338,0.97103 2.06538,3.11348 l -2.49696,0.30827 q -0.23119,-1.10976 -1.24847,-1.69547 -1.00186,-0.60111 -2.69733,-0.60111 -1.88042,0 -2.77439,0.57029 -0.89397,0.57029 -0.89397,1.72629 0,0.70901 0.36992,1.1714 0.36992,0.4624 1.09435,0.78608 0.72442,0.32368 3.05182,0.89397 2.2041,0.55488 3.17514,1.03269 0.97104,0.4624 1.52592,1.03269 0.57029,0.57029 0.87855,1.32554 0.30827,0.73984 0.30827,1.69547 z m 5.39465,-3.14431 q 0,2.86687 1.18682,4.42361 1.18683,1.55674 3.46799,1.55674 1.80335,0 2.88228,-0.72443 1.09435,-0.72442 1.47968,-1.83418 l 2.4353,0.6936 q -1.49509,3.9458 -6.79726,3.9458 -3.69919,0 -5.64126,-2.2041 -1.92666,-2.2041 -1.92666,-6.55064 0,-4.13076 1.92666,-6.33486 1.94207,-2.2041 5.53337,-2.2041 7.35213,0 7.35213,8.86264 v 0.36992 z m 9.03218,-2.12704 q -0.2312,-2.63567 -1.34095,-3.8379 -1.10976,-1.21765 -3.19055,-1.21765 -2.01914,0 -3.20596,1.35637 -1.17141,1.34095 -1.26389,3.69918 z m 6.45817,9.87992 v -12.79303 q 0,-1.75711 -0.0925,-3.88414 h 2.62025 q 0.12331,2.83604 0.12331,3.40633 h 0.0616 q 0.66277,-2.14245 1.52592,-2.92852 0.86314,-0.78608 2.4353,-0.78608 0.55487,0 1.12517,0.15413 v 2.54319 q -0.55488,-0.15413 -1.47968,-0.15413 -1.72629,0 -2.63567,1.49509 -0.90938,1.47967 -0.90938,4.25407 v 8.69309 z m 17.77152,0 h -3.28303 l -6.05742,-16.67717 h 2.95935 l 3.66836,10.85095 q 0.20038,0.61653 1.06352,3.65294 l 0.53947,-1.80335 0.60111,-1.81877 3.79167,-10.88177 h 2.94394 z m 12.71596,0.30826 q -2.51236,0 -3.77625,-1.32554 -1.26389,-1.32554 -1.26389,-3.63753 0,-2.58944 1.69546,-3.97663 1.71087,-1.3872 5.50254,-1.47968 l 3.74543,-0.0616 v -0.90938 q 0,-2.03456 -0.86314,-2.91311 -0.86315,-0.87856 -2.71274,-0.87856 -1.86501,0 -2.71274,0.63194 -0.84773,0.63195 -1.01728,2.01914 l -2.89769,-0.26202 q 0.70901,-4.50068 6.68936,-4.50068 3.14431,0 4.73188,1.44885 1.58757,1.43343 1.58757,4.16158 v 7.18259 q 0,1.23307 0.32368,1.86501 0.32367,0.61653 1.23306,0.61653 0.40074,0 0.90938,-0.10789 v 1.72629 q -1.0481,0.24661 -2.14244,0.24661 -1.54133,0 -2.25034,-0.80149 -0.6936,-0.81691 -0.78608,-2.54319 h -0.0925 q -1.06352,1.91124 -2.48154,2.71273 -1.40261,0.78608 -3.42175,0.78608 z m 0.63195,-2.08079 q 1.52591,0 2.71273,-0.6936 1.18683,-0.6936 1.86501,-1.89583 0.6936,-1.21765 0.6936,-2.49695 v -1.37179 l -3.03642,0.0617 q -1.95748,0.0308 -2.97476,0.40074 -1.00186,0.36992 -1.54133,1.14059 -0.53946,0.77066 -0.53946,2.01914 0,1.35636 0.72442,2.0962 0.73984,0.73984 2.09621,0.73984 z m 19.08164,1.64922 q -1.37179,0.36992 -2.80522,0.36992 -3.32927,0 -3.32927,-3.77626 v -11.12838 h -1.92666 v -2.01914 h 2.03455 l 0.81691,-3.73002 h 1.84959 v 3.73002 h 3.08266 v 2.01914 h -3.08266 v 10.52727 q 0,1.20223 0.38533,1.69546 0.40075,0.47781 1.37179,0.47781 0.55487,0 1.60298,-0.21579 z m 2.3428,-20.09892 v -2.65108 h 2.77439 v 2.65108 z m 0,20.22223 v -16.67717 h 2.77439 v 16.67717 z m 21.13163,-8.354 q 0,4.37737 -1.92666,6.51982 -1.92666,2.14244 -5.59502,2.14244 -3.65295,0 -5.51796,-2.21951 -1.86501,-2.23493 -1.86501,-6.44275 0,-8.63144 7.47545,-8.63144 3.82249,0 5.62584,2.11162 1.80336,2.09621 1.80336,6.51982 z m -2.91311,0 q 0,-3.45258 -1.03269,-5.00932 -1.01728,-1.57215 -3.43716,-1.57215 -2.4353,0 -3.52965,1.60298 -1.07893,1.58757 -1.07893,4.97849 0,3.29844 1.06352,4.96307 1.07893,1.64923 3.37551,1.64923 2.49695,0 3.56047,-1.60299 1.07893,-1.60298 1.07893,-5.00931 z m 16.9546,8.354 v -10.57351 q 0,-1.64923 -0.32367,-2.55861 -0.32368,-0.90938 -1.03269,-1.31013 -0.70902,-0.40074 -2.0808,-0.40074 -2.00372,0 -3.15972,1.37178 -1.156,1.37178 -1.156,3.80708 v 9.66413 h -2.77439 v -13.11671 q 0,-2.91311 -0.0925,-3.56046 h 2.62026 q 0.0154,0.0771 0.0308,0.41615 0.0154,0.3391 0.0308,0.78608 0.0308,0.43157 0.0617,1.64922 h 0.0462 q 0.95562,-1.72628 2.2041,-2.4353 1.26389,-0.72442 3.12889,-0.72442 2.74357,0 4.00746,1.37178 1.2793,1.35637 1.2793,4.50068 v 11.11298 z m 33.21564,-5.99577 q 0,3.00559 -2.35823,4.65481 -2.34282,1.64922 -6.6123,1.64922 -7.93784,0 -9.20173,-5.51795 l 2.85146,-0.57029 q 0.49322,1.95748 2.0962,2.88228 1.60298,0.90938 4.36196,0.90938 2.85146,0 4.39279,-0.97103 1.55674,-0.98645 1.55674,-2.88229 0,-1.06351 -0.49323,-1.72628 -0.47781,-0.66278 -1.35637,-1.09435 -0.87855,-0.43157 -2.0962,-0.72442 -1.21765,-0.29285 -2.69733,-0.63195 -2.57401,-0.57029 -3.91497,-1.14058 -1.32554,-0.57029 -2.09621,-1.26389 -0.77066,-0.70901 -1.18682,-1.64922 -0.40074,-0.94021 -0.40074,-2.15786 0,-2.7898 2.12703,-4.3003 2.14245,-1.51051 6.11907,-1.51051 3.69919,0 5.65668,1.14059 1.95748,1.12517 2.74356,3.85332 l -2.8977,0.50864 q -0.47781,-1.72629 -1.81876,-2.49696 -1.34096,-0.78607 -3.7146,-0.78607 -2.60485,0 -3.97663,0.86314 -1.37178,0.86314 -1.37178,2.57402 0,1.00186 0.52405,1.66463 0.53946,0.64736 1.54133,1.10976 1.00186,0.44698 3.99204,1.10975 1.00186,0.2312 1.98831,0.47782 1.00186,0.2312 1.91125,0.57029 0.90938,0.32368 1.69546,0.77066 0.80149,0.44699 1.38719,1.09435 0.58571,0.64735 0.90939,1.52591 0.33909,0.87856 0.33909,2.06538 z m 4.39275,12.54641 q -1.14059,0 -1.91125,-0.16955 v -2.08079 q 0.5857,0.0925 1.29471,0.0925 2.58944,0 4.09994,-3.80708 l 0.26202,-0.66277 -6.61229,-16.6001 h 2.95935 l 3.51422,9.21714 q 0.0771,0.21578 0.18496,0.52405 0.1079,0.29285 0.6936,2.00373 0.58571,1.71087 0.63194,1.91124 l 1.07893,-3.03641 3.65295,-10.61975 h 2.92853 l -6.41193,16.67717 q -1.03269,2.66649 -1.92666,3.96121 -0.89397,1.31013 -1.98831,1.94207 -1.07893,0.64736 -2.45071,0.64736 z m 27.48188,-11.15921 q 0,2.35823 -1.78794,3.63753 -1.77253,1.2793 -4.97849,1.2793 -3.11348,0 -4.80895,-1.01727 -1.68004,-1.03269 -2.18868,-3.20597 l 2.45071,-0.47781 q 0.35451,1.34096 1.46426,1.9729 1.10976,0.61653 3.08266,0.61653 2.11162,0 3.08265,-0.64736 0.98645,-0.64735 0.98645,-1.94207 0,-0.98645 -0.67818,-1.60298 -0.67818,-0.61653 -2.18869,-1.01728 l -1.98831,-0.52405 q -2.38906,-0.61653 -3.40633,-1.20223 -1.00187,-0.60112 -1.57216,-1.44885 -0.57029,-0.84773 -0.57029,-2.0808 0,-2.28116 1.61839,-3.46798 1.63381,-1.20224 4.7473,-1.20224 2.75897,0 4.37737,0.97104 1.6338,0.97103 2.06538,3.11348 l -2.49695,0.30827 q -0.2312,-1.10976 -1.24848,-1.69547 -1.00186,-0.60111 -2.69732,-0.60111 -1.88043,0 -2.7744,0.57029 -0.89397,0.57029 -0.89397,1.72629 0,0.70901 0.36992,1.1714 0.36992,0.4624 1.09435,0.78608 0.72442,0.32368 3.05183,0.89397 2.20409,0.55488 3.17513,1.03269 0.97104,0.4624 1.52592,1.03269 0.57029,0.57029 0.87855,1.32554 0.30827,0.73984 0.30827,1.69547 z m 9.67954,4.48526 q -1.37178,0.36992 -2.80521,0.36992 -3.32927,0 -3.32927,-3.77626 v -11.12838 h -1.92666 v -2.01914 h 2.03455 l 0.8169,-3.73002 h 1.8496 v 3.73002 h 3.08265 v 2.01914 h -3.08265 v 10.52727 q 0,1.20223 0.38533,1.69546 0.40074,0.47781 1.37178,0.47781 0.55488,0 1.60298,-0.21579 z m 4.48525,-7.62957 q 0,2.86687 1.18682,4.42361 1.18683,1.55674 3.46799,1.55674 1.80336,0 2.88229,-0.72443 1.09434,-0.72442 1.47967,-1.83418 l 2.4353,0.6936 q -1.49509,3.9458 -6.79726,3.9458 -3.69918,0 -5.64126,-2.2041 -1.92666,-2.2041 -1.92666,-6.55064 0,-4.13076 1.92666,-6.33486 1.94208,-2.2041 5.53337,-2.2041 7.35214,0 7.35214,8.86264 v 0.36992 z m 9.03219,-2.12704 q -0.2312,-2.63567 -1.34096,-3.8379 -1.10976,-1.21765 -3.19055,-1.21765 -2.01914,0 -3.20596,1.35637 -1.17141,1.34095 -1.26389,3.69918 z m 16.10687,9.87992 v -10.57351 q 0,-2.41989 -0.66277,-3.34469 -0.66277,-0.92479 -2.38906,-0.92479 -1.77253,0 -2.80522,1.35636 -1.03269,1.35637 -1.03269,3.8225 v 9.66413 h -2.75897 v -13.11671 q 0,-2.91311 -0.0925,-3.56046 h 2.62026 q 0.0154,0.0771 0.0308,0.41615 0.0154,0.3391 0.0308,0.78608 0.0308,0.43157 0.0617,1.64922 h 0.0462 q 0.89397,-1.77252 2.04997,-2.46612 1.15599,-0.6936 2.82063,-0.6936 1.89583,0 2.99018,0.75525 1.10975,0.75525 1.54132,2.40447 h 0.0462 q 0.86315,-1.68004 2.0808,-2.41988 1.23306,-0.73984 2.97476,-0.73984 2.52778,0 3.66836,1.37178 1.156,1.37178 1.156,4.50068 v 11.11298 h -2.74357 v -10.57351 q 0,-2.41989 -0.66277,-3.34469 -0.66277,-0.92479 -2.38906,-0.92479 -1.81876,0 -2.83604,1.35636 -1.00186,1.34096 -1.00186,3.8225 v 9.66413 z"
     id="text5"
     style="font-size:31.5664px;font-family:Arial, sans-serif;fill:#ffffff;stroke-width:0.876845"
     aria-label="Face Recognition Based Reservation System" /><path
     d="m 349.03476,364.2834 q 0,2.41191 -1.75762,3.759 -1.75762,1.33425 -4.88798,1.33425 h -7.33838 V 351.3001 h 6.56862 q 6.36336,0 6.36336,4.38764 0,1.60366 -0.89806,2.69416 -0.89805,1.09049 -2.54021,1.46254 2.15533,0.25659 3.3228,1.44972 1.16747,1.1803 1.16747,2.98924 z m -3.51524,-8.30059 q 0,-1.46254 -1.00069,-2.09118 -1.00069,-0.62864 -2.89943,-0.62864 h -4.11822 v 5.72189 h 4.11822 q 1.96289,0 2.92509,-0.73127 0.97503,-0.74411 0.97503,-2.2708 z m 1.03918,8.10815 q 0,-3.19451 -4.49027,-3.19451 h -4.56725 v 6.51731 h 4.75969 q 2.24513,0 3.27148,-0.83391 1.02635,-0.83391 1.02635,-2.48889 z m 7.89005,-8.59566 v 8.80093 q 0,1.37274 0.26941,2.12967 0.26942,0.75693 0.85957,1.09049 0.59015,0.33357 1.73196,0.33357 1.66782,0 2.63002,-1.14182 0.9622,-1.14181 0.9622,-3.16884 v -8.044 h 2.30928 v 10.91777 q 0,2.42475 0.077,2.96358 h -2.18099 q -0.0128,-0.0641 -0.0257,-0.34639 -0.0128,-0.28225 -0.0385,-0.64147 -0.0128,-0.37205 -0.0385,-1.38557 h -0.0385 q -0.79542,1.43689 -1.84743,2.03986 -1.03918,0.59015 -2.59153,0.59015 -2.28362,0 -3.34846,-1.12898 -1.052,-1.14181 -1.052,-3.759 v -9.24995 z m 12.34183,-2.95075 v -2.20665 h 2.30928 v 2.20665 z m 0,16.8321 V 355.4953 h 2.30928 v 13.88135 z m 5.85018,0 V 350.3379 h 2.30928 v 19.03875 z m 11.17436,-0.10264 q -1.14181,0.30791 -2.33494,0.30791 -2.77114,0 -2.77114,-3.14319 v -9.26279 h -1.60367 v -1.68064 h 1.69348 l 0.67995,-3.10471 h 1.53952 v 3.10471 h 2.56587 v 1.68064 h -2.56587 v 8.76244 q 0,1.00069 0.32074,1.41123 0.33356,0.39771 1.14181,0.39771 0.46186,0 1.33425,-0.17961 z m 22.55399,0.10264 h -2.68133 l -2.42475,-9.81445 -0.46186,-2.16816 q -0.11546,0.57732 -0.35922,1.66781 -0.24376,1.07767 -2.61719,10.3148 h -2.6685 l -3.88729,-13.88135 h 2.28362 l 2.34777,9.42957 q 0.0898,0.3079 0.55166,2.54021 l 0.2181,-0.94938 2.89944,-11.0204 h 2.47606 l 2.42475,9.5322 0.59015,2.43758 0.39771,-1.78328 2.63001,-10.1865 h 2.25797 z m 5.67057,-16.8321 v -2.20665 h 2.30928 v 2.20665 z m 0,16.8321 V 355.4953 h 2.30928 v 13.88135 z m 11.18719,-0.10264 q -1.14181,0.30791 -2.33494,0.30791 -2.77114,0 -2.77114,-3.14319 v -9.26279 h -1.60367 v -1.68064 h 1.69348 l 0.67995,-3.10471 h 1.53953 v 3.10471 h 2.56586 v 1.68064 h -2.56586 v 8.76244 q 0,1.00069 0.32073,1.41123 0.33356,0.39771 1.14181,0.39771 0.46186,0 1.33425,-0.17961 z m 4.25934,-11.40529 q 0.74411,-1.35991 1.78328,-1.98854 1.05201,-0.64147 2.65568,-0.64147 2.25796,0 3.3228,1.12898 1.07766,1.11615 1.07766,3.759 v 9.24996 h -2.32211 v -8.80093 q 0,-1.46255 -0.26941,-2.16816 -0.26942,-0.71845 -0.88523,-1.05201 -0.61581,-0.33356 -1.7063,-0.33356 -1.62933,0 -2.61719,1.12898 -0.97503,1.12898 -0.97503,3.04056 v 8.18512 h -2.30928 V 350.3379 h 2.30928 v 4.95213 q 0,0.78259 -0.0513,1.61649 -0.0385,0.83391 -0.0513,0.9622 z m 33.98494,-1.12898 q 0,2.56587 -1.68064,4.07973 -1.66782,1.51387 -4.54159,1.51387 h -5.31135 v 7.04331 h -2.45041 V 351.3001 h 7.6078 q 3.04056,0 4.70837,1.42406 1.66782,1.42405 1.66782,4.01558 z m -2.46323,0.0257 q 0,-3.50241 -4.20803,-3.50241 h -4.86232 v 7.13312 h 4.96495 q 4.1054,0 4.1054,-3.63071 z m 6.2992,18.06372 q -0.94937,0 -1.59083,-0.14112 v -1.73196 q 0.48751,0.077 1.07766,0.077 2.15533,0 3.41261,-3.16885 l 0.2181,-0.55166 -5.50379,-13.8172 h 2.46323 l 2.92509,7.67194 q 0.0641,0.17962 0.15395,0.4362 0.0898,0.24376 0.57732,1.66782 0.48752,1.42405 0.52601,1.59084 l 0.89805,-2.52738 3.04056,-8.83942 h 2.43757 l -5.33701,13.88135 q -0.85956,2.21947 -1.60366,3.29714 -0.74411,1.09049 -1.65499,1.6165 -0.89805,0.53883 -2.03987,0.53883 z m 17.79431,-5.55511 q -1.14181,0.30791 -2.33494,0.30791 -2.77114,0 -2.77114,-3.14319 v -9.26279 h -1.60367 v -1.68064 h 1.69348 l 0.67995,-3.10471 h 1.53952 v 3.10471 h 2.56587 v 1.68064 h -2.56587 v 8.76244 q 0,1.00069 0.32074,1.41123 0.33356,0.39771 1.14181,0.39771 0.46185,0 1.33425,-0.17961 z m 4.25934,-11.40529 q 0.7441,-1.35991 1.78328,-1.98854 1.05201,-0.64147 2.65568,-0.64147 2.25796,0 3.3228,1.12898 1.07766,1.11615 1.07766,3.759 v 9.24996 h -2.32211 v -8.80093 q 0,-1.46255 -0.26942,-2.16816 -0.26941,-0.71845 -0.88522,-1.05201 -0.61581,-0.33356 -1.7063,-0.33356 -1.62933,0 -2.61719,1.12898 -0.97503,1.12898 -0.97503,3.04056 v 8.18512 h -2.30928 V 350.3379 h 2.30928 v 4.95213 q 0,0.78259 -0.0513,1.61649 -0.0385,0.83391 -0.0513,0.9622 z m 24.05503,4.55442 q 0,3.64354 -1.60367,5.42682 -1.60367,1.78327 -4.65706,1.78327 -3.04055,0 -4.5929,-1.84742 -1.55235,-1.86026 -1.55235,-5.36267 0,-7.18443 6.22223,-7.18443 3.18168,0 4.68271,1.75762 1.50104,1.74479 1.50104,5.42681 z m -2.42475,0 q 0,-2.87377 -0.85957,-4.16953 -0.84673,-1.3086 -2.86094,-1.3086 -2.02704,0 -2.93792,1.33425 -0.89806,1.32143 -0.89806,4.14388 0,2.74548 0.88523,4.13105 0.89805,1.37274 2.80963,1.37274 2.07835,0 2.96357,-1.33425 0.89806,-1.33425 0.89806,-4.16954 z m 14.11228,6.95351 v -8.80093 q 0,-1.37274 -0.26942,-2.12967 -0.26941,-0.75694 -0.85956,-1.0905 -0.59015,-0.33356 -1.73196,-0.33356 -1.66782,0 -2.63002,1.14181 -0.9622,1.14181 -0.9622,3.16885 v 8.044 h -2.30928 v -10.91778 q 0,-2.42474 -0.077,-2.96357 h 2.18099 q 0.0128,0.0641 0.0257,0.34639 0.0128,0.28224 0.0257,0.65429 0.0257,0.35923 0.0513,1.37274 h 0.0385 q 0.79542,-1.43688 1.8346,-2.02703 1.052,-0.60298 2.60436,-0.60298 2.28362,0 3.33563,1.14181 1.06483,1.12898 1.06483,3.74617 v 9.24996 z m 19.48777,-8.74962 q 0,1.44972 -1.052,2.52739 -1.03918,1.07766 -2.55304,1.07766 -1.44972,0 -2.48889,-1.06484 -1.02635,-1.06483 -1.02635,-2.54021 0,-1.47537 1.03917,-2.48889 1.03918,-1.02635 2.47607,-1.02635 1.4882,0 2.54021,1.03918 1.06483,1.02635 1.06483,2.47606 z m 27.51895,-0.37205 q 0,2.83529 -1.0905,4.96496 -1.07766,2.12967 -3.1047,3.27148 -2.02704,1.14181 -4.78534,1.14181 -2.78397,0 -4.81101,-1.12898 -2.01421,-1.12898 -3.07904,-3.25865 -1.06484,-2.1425 -1.06484,-4.99062 0,-4.33632 2.37343,-6.77389 2.37343,-2.45041 6.60711,-2.45041 2.75831,0 4.78535,1.10333 2.02704,1.09049 3.09187,3.18168 1.07767,2.09118 1.07767,4.93929 z m -2.50172,0 q 0,-3.37411 -1.69348,-5.29852 -1.68064,-1.9244 -4.75969,-1.9244 -3.1047,0 -4.79817,1.89874 -1.69347,1.89875 -1.69347,5.32418 0,3.39978 1.7063,5.40116 1.71913,1.98855 4.75969,1.98855 3.13036,0 4.79817,-1.92441 1.68065,-1.93723 1.68065,-5.4653 z m 17.2683,2.11685 q 0,7.2614 -5.10608,7.2614 -3.20734,0 -4.31066,-2.41191 h -0.0641 q 0.0513,0.10263 0.0513,2.18099 v 5.42681 h -2.30929 v -16.49854 q 0,-2.1425 -0.077,-2.83528 h 2.2323 q 0.0128,0.0513 0.0385,0.37205 0.0257,0.3079 0.0513,0.9622 0.0385,0.65429 0.0385,0.89805 h 0.0513 q 0.6158,-1.28293 1.62932,-1.87308 1.01352,-0.60298 2.66851,-0.60298 2.56587,0 3.83597,1.71913 1.27011,1.71913 1.27011,5.40116 z m -2.42475,0.0513 q 0,-2.89943 -0.78259,-4.14388 -0.78259,-1.24444 -2.48889,-1.24444 -1.37274,0 -2.15533,0.57732 -0.76976,0.57732 -1.1803,1.80894 -0.39771,1.21878 -0.39771,3.18167 0,2.73265 0.87239,4.02842 0.8724,1.29576 2.83529,1.29576 1.71913,0 2.50172,-1.25727 0.79542,-1.27011 0.79542,-4.24652 z m 7.06897,0.50035 q 0,2.38626 0.98786,3.68202 0.98786,1.29576 2.8866,1.29576 1.50104,0 2.39909,-0.60298 0.91088,-0.60298 1.23162,-1.52669 l 2.02703,0.57732 q -1.24444,3.28431 -5.65774,3.28431 -3.07904,0 -4.69554,-1.83459 -1.60367,-1.8346 -1.60367,-5.45247 0,-3.43827 1.60367,-5.27286 1.6165,-1.8346 4.60574,-1.8346 6.11959,0 6.11959,7.37687 v 0.30791 z m 7.518,-1.77045 q -0.19244,-2.19382 -1.11616,-3.19451 -0.92371,-1.01352 -2.65567,-1.01352 -1.68065,0 -2.66851,1.12898 -0.97503,1.11616 -1.052,3.07905 z m 14.13795,8.22361 v -8.80093 q 0,-1.37274 -0.26942,-2.12967 -0.26941,-0.75694 -0.85956,-1.0905 -0.59015,-0.33356 -1.73196,-0.33356 -1.66782,0 -2.63002,1.14181 -0.9622,1.14181 -0.9622,3.16885 v 8.044 h -2.30928 v -10.91778 q 0,-2.42474 -0.077,-2.96357 h 2.18099 q 0.0128,0.0641 0.0257,0.34639 0.0128,0.28224 0.0257,0.65429 0.0257,0.35923 0.0513,1.37274 h 0.0385 q 0.79542,-1.43688 1.8346,-2.02703 1.05201,-0.60298 2.60436,-0.60298 2.28362,0 3.33563,1.14181 1.06483,1.12898 1.06483,3.74617 v 9.24996 z m 14.18924,-16.34459 q -3.00206,0 -4.66988,1.93723 -1.66781,1.9244 -1.66781,5.28569 0,3.3228 1.73196,5.34984 1.74479,2.01421 4.70837,2.01421 3.79748,0 5.70906,-3.759 l 2.00137,1.00069 q -1.11615,2.33494 -3.14319,3.55373 -2.0142,1.21878 -4.68271,1.21878 -2.73265,0 -4.73403,-1.12898 -1.98854,-1.14181 -3.04055,-3.24582 -1.03918,-2.11684 -1.03918,-5.00345 0,-4.32349 2.33494,-6.77389 2.33494,-2.45041 6.46599,-2.45041 2.88661,0 4.82384,1.12899 1.93723,1.12898 2.84811,3.34846 l -2.32211,0.76976 q -0.62864,-1.57801 -2.02704,-2.41192 -1.38557,-0.83391 -3.29714,-0.83391 z m 18.84632,16.34459 h -2.54021 l -7.37688,-18.07655 h 2.5787 l 5.00345,12.72671 1.07766,3.19451 1.07767,-3.19451 4.97778,-12.72671 h 2.5787 z m 22.95168,-8.74962 q 0,1.44972 -1.052,2.52739 -1.03918,1.07766 -2.55304,1.07766 -1.44972,0 -2.4889,-1.06484 -1.02635,-1.06483 -1.02635,-2.54021 0,-1.47537 1.03918,-2.48889 1.03918,-1.02635 2.47607,-1.02635 1.4882,0 2.54021,1.03918 1.06483,1.02635 1.06483,2.47606 z m 26.0564,-0.47468 q 0,2.7968 -1.0905,4.90081 -1.09049,2.09118 -3.09187,3.20733 -2.00138,1.11616 -4.61856,1.11616 h -6.76107 V 351.3001 h 5.97848 q 4.5929,0 7.0818,2.30928 2.50172,2.29646 2.50172,6.54297 z m -2.46324,0 q 0,-3.36129 -1.84742,-5.11891 -1.8346,-1.77045 -5.32418,-1.77045 h -3.47675 v 14.15077 h 4.02841 q 1.98855,0 3.48958,-0.8724 1.51387,-0.87239 2.32212,-2.51455 0.80824,-1.64216 0.80824,-3.87446 z m 5.47814,-7.6078 v -2.20665 h 2.30928 v 2.20665 z m 2.30928,18.55123 q 0,1.96289 -0.76976,2.84812 -0.76976,0.88522 -2.30928,0.88522 -0.98786,0 -1.62933,-0.11546 v -1.78328 l 0.79542,0.077 q 0.88523,0 1.24445,-0.46185 0.35922,-0.46186 0.35922,-1.79611 V 355.4953 h 2.30928 z m 7.08182,-1.46255 q -2.09118,0 -3.14319,-1.10332 -1.052,-1.10332 -1.052,-3.02772 0,-2.15533 1.41123,-3.30998 1.42405,-1.15464 4.58007,-1.23161 l 3.11753,-0.0513 v -0.75693 q 0,-1.69348 -0.71844,-2.42475 -0.71844,-0.73127 -2.25797,-0.73127 -1.55235,0 -2.25796,0.526 -0.70561,0.52601 -0.84674,1.68065 l -2.41191,-0.2181 q 0.59015,-3.74617 5.56793,-3.74617 2.61719,0 3.93861,1.20596 1.32142,1.19313 1.32142,3.46392 v 5.97848 q 0,1.02634 0.26942,1.55235 0.26942,0.51317 1.02635,0.51317 0.33356,0 0.75693,-0.0898 v 1.43688 q -0.8724,0.20527 -1.78328,0.20527 -1.28293,0 -1.87308,-0.66712 -0.57733,-0.67996 -0.6543,-2.11685 h -0.077 q -0.88522,1.59084 -2.06552,2.25797 -1.16747,0.65429 -2.84812,0.65429 z m 0.52601,-1.73196 q 1.2701,0 2.25796,-0.57732 0.98786,-0.57732 1.55235,-1.57801 0.57732,-1.01352 0.57732,-2.07835 v -1.14181 l -2.52738,0.0513 q -1.62933,0.0257 -2.47606,0.33357 -0.83391,0.3079 -1.28294,0.94937 -0.44902,0.64147 -0.44902,1.68064 0,1.12899 0.60298,1.74479 0.6158,0.61581 1.74479,0.61581 z m 19.35946,1.47538 v -8.80093 q 0,-1.37274 -0.26941,-2.12967 -0.26942,-0.75694 -0.85957,-1.0905 -0.59015,-0.33356 -1.73196,-0.33356 -1.66781,0 -2.63002,1.14181 -0.9622,1.14181 -0.9622,3.16885 v 8.044 h -2.30928 v -10.91778 q 0,-2.42474 -0.077,-2.96357 h 2.18099 q 0.0128,0.0641 0.0257,0.34639 0.0128,0.28224 0.0257,0.65429 0.0257,0.35923 0.0513,1.37274 h 0.0385 q 0.79542,-1.43688 1.83459,-2.02703 1.05201,-0.60298 2.60436,-0.60298 2.28362,0 3.33563,1.14181 1.06484,1.12898 1.06484,3.74617 v 9.24996 z m 11.05892,5.45247 q -2.2708,0 -3.61788,-0.89805 -1.34708,-0.88523 -1.73196,-2.52739 l 2.32211,-0.33356 q 0.23093,0.9622 1.01352,1.47538 0.79542,0.526 2.07835,0.526 3.4511,0 3.4511,-4.04124 v -2.23231 h -0.0257 q -0.6543,1.33425 -1.79611,2.01421 -1.14181,0.66712 -2.6685,0.66712 -2.55304,0 -3.759,-1.69347 -1.19313,-1.69347 -1.19313,-5.32418 0,-3.68202 1.28293,-5.42681 1.29577,-1.75762 3.92578,-1.75762 1.47538,0 2.55304,0.67995 1.0905,0.66713 1.68065,1.91157 h 0.0257 q 0,-0.38488 0.0513,-1.33425 0.0513,-0.94937 0.10264,-1.03917 h 2.19382 q -0.077,0.69278 -0.077,2.87377 v 10.60987 q 0,5.85018 -5.81169,5.85018 z m 3.51524,-12.39315 q 0,-1.69347 -0.46186,-2.91226 -0.46186,-1.23162 -1.30859,-1.87308 -0.83391,-0.6543 -1.89875,-0.6543 -1.77045,0 -2.57869,1.28293 -0.80825,1.28294 -0.80825,4.15671 0,2.84812 0.75693,4.09256 0.75693,1.24445 2.59153,1.24445 1.09049,0 1.93723,-0.64147 0.84673,-0.64146 1.30859,-1.83459 0.46186,-1.20596 0.46186,-2.86095 z m 17.57619,-0.0128 q 0,3.64354 -1.60367,5.42682 -1.60367,1.78327 -4.65706,1.78327 -3.04055,0 -4.5929,-1.84742 -1.55235,-1.86026 -1.55235,-5.36267 0,-7.18443 6.22223,-7.18443 3.18168,0 4.68271,1.75762 1.50104,1.74479 1.50104,5.42681 z m -2.42475,0 q 0,-2.87377 -0.85957,-4.16953 -0.84673,-1.3086 -2.86094,-1.3086 -2.02704,0 -2.93792,1.33425 -0.89806,1.32143 -0.89806,4.14388 0,2.74548 0.88523,4.13105 0.89805,1.37274 2.80963,1.37274 2.07835,0 2.96357,-1.33425 0.89806,-1.33425 0.89806,-4.16954 z m 18.98744,-1.79611 q 0,1.44972 -1.052,2.52739 -1.03918,1.07766 -2.55304,1.07766 -1.44972,0 -2.48889,-1.06484 -1.02635,-1.06483 -1.02635,-2.54021 0,-1.47537 1.03917,-2.48889 1.03918,-1.02635 2.47607,-1.02635 1.4882,0 2.54021,1.03918 1.06483,1.02635 1.06483,2.47606 z m 27.72422,8.74962 h -2.92509 l -3.13036,-11.48227 q -0.30791,-1.07766 -0.89806,-3.86163 -0.33356,1.4882 -0.56449,2.48889 -0.23093,1.00069 -3.50241,12.85501 h -2.92509 l -5.32418,-18.07655 h 2.55304 l 3.24582,11.48226 q 0.57732,2.15533 1.06484,4.43896 0.3079,-1.41123 0.70561,-3.07905 0.41054,-1.66781 3.56656,-12.84217 h 2.34777 l 3.14319,11.25134 q 0.71845,2.75831 1.12898,4.66988 l 0.11547,-0.44903 q 0.34639,-1.47537 0.56449,-2.39909 0.2181,-0.93654 3.60505,-13.0731 h 2.55304 z m 8.48019,-6.45316 q 0,2.38626 0.98786,3.68202 0.98786,1.29576 2.8866,1.29576 1.50103,0 2.39909,-0.60298 0.91088,-0.60298 1.23161,-1.52669 l 2.02704,0.57732 q -1.24445,3.28431 -5.65774,3.28431 -3.07904,0 -4.69554,-1.83459 -1.60367,-1.8346 -1.60367,-5.45247 0,-3.43827 1.60367,-5.27286 1.6165,-1.8346 4.60573,-1.8346 6.1196,0 6.1196,7.37687 v 0.30791 z m 7.51799,-1.77045 q -0.19244,-2.19382 -1.11615,-3.19451 -0.92371,-1.01352 -2.65567,-1.01352 -1.68065,0 -2.66851,1.12898 -0.97503,1.11616 -1.052,3.07905 z m 17.06302,1.21879 q 0,7.2614 -5.10608,7.2614 -1.57801,0 -2.63002,-0.56449 -1.03917,-0.57732 -1.69347,-1.84742 h -0.0257 q 0,0.39771 -0.0513,1.21879 -0.0513,0.80824 -0.077,0.93654 h -2.23231 q 0.077,-0.69279 0.077,-2.86095 v -16.1778 h 2.30928 v 5.42681 q 0,0.83391 -0.0513,1.96289 h 0.0513 q 0.64147,-1.33425 1.69347,-1.91157 1.06484,-0.57732 2.63002,-0.57732 2.63002,0 3.86163,1.77045 1.24445,1.77045 1.24445,5.36267 z m -2.42475,0.077 q 0,-2.91226 -0.76976,-4.16954 -0.76976,-1.25727 -2.50172,-1.25727 -1.95006,0 -2.84812,1.33425 -0.88522,1.33425 -0.88522,4.23368 0,2.73265 0.8724,4.04125 0.87239,1.29576 2.83528,1.29576 1.74479,0 2.51455,-1.28293 0.78259,-1.29577 0.78259,-4.1952 z m 19.84702,1.93723 q 0,2.50172 -1.96289,3.87446 -1.95006,1.37274 -5.50379,1.37274 -6.60712,0 -7.65912,-4.5929 l 2.37343,-0.47469 q 0.41054,1.62933 1.74479,2.39909 1.33425,0.75693 3.6307,0.75693 2.37343,0 3.65637,-0.80825 1.29576,-0.82107 1.29576,-2.39908 0,-0.88523 -0.41054,-1.43689 -0.39771,-0.55166 -1.12898,-0.91088 -0.73127,-0.35923 -1.74479,-0.60298 -1.01352,-0.24376 -2.24514,-0.52601 -2.1425,-0.47468 -3.25865,-0.94937 -1.10333,-0.47468 -1.74479,-1.052 -0.64147,-0.59015 -0.98786,-1.37274 -0.33357,-0.78259 -0.33357,-1.79611 0,-2.32211 1.77045,-3.57939 1.78328,-1.25728 5.09325,-1.25728 3.07905,0 4.70837,0.94938 1.62933,0.93654 2.28363,3.20733 l -2.41192,0.42337 q -0.39771,-1.43689 -1.51386,-2.07835 -1.11616,-0.6543 -3.09187,-0.6543 -2.16816,0 -3.30998,0.71844 -1.14181,0.71845 -1.14181,2.1425 0,0.83391 0.4362,1.38557 0.44903,0.53884 1.28294,0.92372 0.8339,0.37205 3.3228,0.92371 0.8339,0.19244 1.65498,0.39771 0.83391,0.19244 1.59084,0.47468 0.75693,0.26942 1.41123,0.64147 0.66712,0.37205 1.15464,0.91088 0.48751,0.53884 0.75693,1.27011 0.28225,0.73127 0.28225,1.71913 z m 14.71527,-1.96289 q 0,3.64354 -1.60367,5.42682 -1.60366,1.78327 -4.65705,1.78327 -3.04055,0 -4.5929,-1.84742 -1.55236,-1.86026 -1.55236,-5.36267 0,-7.18443 6.22224,-7.18443 3.18167,0 4.68271,1.75762 1.50103,1.74479 1.50103,5.42681 z m -2.42474,0 q 0,-2.87377 -0.85957,-4.16953 -0.84674,-1.3086 -2.86094,-1.3086 -2.02704,0 -2.93792,1.33425 -0.89806,1.32143 -0.89806,4.14388 0,2.74548 0.88523,4.13105 0.89805,1.37274 2.80962,1.37274 2.07836,0 2.96358,-1.33425 0.89806,-1.33425 0.89806,-4.16954 z m 7.05612,-0.0513 q 0,2.77113 0.8724,4.10539 0.87239,1.33425 2.63001,1.33425 1.23162,0 2.0527,-0.66713 0.8339,-0.66712 1.02635,-2.05269 l 2.33494,0.15395 q -0.26942,2.00138 -1.70631,3.19451 -1.43688,1.19312 -3.64353,1.19312 -2.91226,0 -4.45178,-1.83459 -1.5267,-1.84743 -1.5267,-5.3755 0,-3.50241 1.53953,-5.33701 1.53952,-1.84742 4.41329,-1.84742 2.12967,0 3.52807,1.10332 1.41123,1.10333 1.77045,3.04056 l -2.37343,0.17961 q -0.17961,-1.15464 -0.91088,-1.8346 -0.73128,-0.67995 -2.07836,-0.67995 -1.83459,0 -2.65567,1.21878 -0.82108,1.21879 -0.82108,4.1054 z m 20.07794,7.00482 -4.69554,-6.3377 -1.69347,1.3984 v 4.9393 h -2.30928 V 350.3379 h 2.30928 v 11.8928 l 6.09394,-6.7354 h 2.70699 l -5.63208,5.96564 5.92716,7.91571 z m 6.20937,-6.45316 q 0,2.38626 0.98785,3.68202 0.98786,1.29576 2.88661,1.29576 1.50103,0 2.39909,-0.60298 0.91088,-0.60298 1.23161,-1.52669 l 2.02704,0.57732 q -1.24445,3.28431 -5.65774,3.28431 -3.07905,0 -4.69554,-1.83459 -1.60367,-1.8346 -1.60367,-5.45247 0,-3.43827 1.60367,-5.27286 1.61649,-1.8346 4.60573,-1.8346 6.1196,0 6.1196,7.37687 v 0.30791 z m 7.51799,-1.77045 q -0.19244,-2.19382 -1.11615,-3.19451 -0.92371,-1.01352 -2.65568,-1.01352 -1.68064,0 -2.6685,1.12898 -0.97503,1.11616 -1.05201,3.07905 z m 10.66123,8.12097 q -1.14181,0.30791 -2.33494,0.30791 -2.77114,0 -2.77114,-3.14319 v -9.26279 h -1.60366 v -1.68064 h 1.69347 l 0.67996,-3.10471 h 1.53952 v 3.10471 h 2.56587 v 1.68064 h -2.56587 v 8.76244 q 0,1.00069 0.32073,1.41123 0.33356,0.39771 1.14181,0.39771 0.46186,0 1.33425,-0.17961 z"
     id="text6"
     style="font-size:26.2745px;font-family:Arial, sans-serif;fill:#ffffff;stroke-width:1.09477"
     aria-label="Built with Python  OpenCV  Django  WebSocket" /><!-- Gradient Definition --><defs
     id="defs7"><linearGradient
       id="gradient"
       x1="0"
       y1="0"
       x2="1200"
       y2="630"
       gradientUnits="userSpaceOnUse"
       gradientTransform="scale(1.0666666,1.015873)"><stop
         offset="0"
         stop-color="#2563eb"
         stop-opacity="1"
         id="stop6" /><stop
         offset="1"
         stop-color="#1e40af"
         stop-opacity="1"
         id="stop7" /></linearGradient></defs><path
     d="m 450.04194,519.67299 q 0,2.41191 -1.75763,3.75899 -1.75762,1.33426 -4.88798,1.33426 h -7.33838 v -18.07655 h 6.56862 q 6.36336,0 6.36336,4.38763 0,1.60367 -0.89806,2.69417 -0.89805,1.09049 -2.54021,1.46254 2.15533,0.25659 3.3228,1.44972 1.16748,1.1803 1.16748,2.98924 z m -3.51525,-8.30059 q 0,-1.46255 -1.00068,-2.09118 -1.00069,-0.62864 -2.89944,-0.62864 h -4.11822 v 5.72189 h 4.11822 q 1.96289,0 2.92509,-0.73128 0.97503,-0.7441 0.97503,-2.27079 z m 1.03918,8.10814 q 0,-3.1945 -4.49027,-3.1945 h -4.56725 v 6.51731 h 4.75969 q 2.24514,0 3.27148,-0.83391 1.02635,-0.83391 1.02635,-2.4889 z m 7.89005,-8.59566 v 8.80093 q 0,1.37274 0.26942,2.12968 0.26941,0.75693 0.85956,1.09049 0.59015,0.33356 1.73196,0.33356 1.66782,0 2.63002,-1.14181 0.9622,-1.14181 0.9622,-3.16885 v -8.044 h 2.30928 v 10.91778 q 0,2.42474 0.077,2.96358 h -2.18099 q -0.0128,-0.0642 -0.0257,-0.3464 -0.0128,-0.28224 -0.0385,-0.64146 -0.0128,-0.37206 -0.0385,-1.38557 h -0.0385 q -0.79542,1.43688 -1.84743,2.03986 -1.03918,0.59015 -2.59153,0.59015 -2.28362,0 -3.34846,-1.12898 -1.052,-1.14181 -1.052,-3.759 v -9.24996 z m 12.34183,-2.95075 v -2.20664 h 2.30928 v 2.20664 z m 0,16.83211 v -13.88136 h 2.30928 v 13.88136 z m 5.85018,0 v -19.03875 h 2.30929 v 19.03875 z m 11.17436,-0.10264 q -1.14181,0.3079 -2.33494,0.3079 -2.77114,0 -2.77114,-3.14318 v -9.26279 h -1.60366 v -1.68065 h 1.69347 l 0.67995,-3.1047 h 1.53953 v 3.1047 h 2.56587 v 1.68065 h -2.56587 v 8.76244 q 0,1.00069 0.32073,1.41123 0.33356,0.39771 1.14181,0.39771 0.46186,0 1.33425,-0.17961 z m 22.55399,0.10264 h -2.68133 l -2.42475,-9.81445 -0.46186,-2.16816 q -0.11546,0.57732 -0.35922,1.66781 -0.24375,1.07767 -2.61718,10.3148 h -2.66851 l -3.88729,-13.88136 h 2.28362 l 2.34777,9.42957 q 0.0898,0.30791 0.55167,2.54021 l 0.2181,-0.94937 2.89943,-11.02041 h 2.47606 l 2.42475,9.53221 0.59015,2.43757 0.39771,-1.78328 2.63001,-10.1865 h 2.25797 z m 5.67057,-16.83211 v -2.20664 h 2.30928 v 2.20664 z m 0,16.83211 v -13.88136 h 2.30928 v 13.88136 z m 11.18719,-0.10264 q -1.14181,0.3079 -2.33494,0.3079 -2.77114,0 -2.77114,-3.14318 v -9.26279 h -1.60366 v -1.68065 h 1.69347 l 0.67996,-3.1047 h 1.53952 v 3.1047 h 2.56587 v 1.68065 h -2.56587 v 8.76244 q 0,1.00069 0.32073,1.41123 0.33356,0.39771 1.14181,0.39771 0.46186,0 1.33425,-0.17961 z m 4.25935,-11.40529 q 0.7441,-1.35991 1.78327,-1.98855 1.05201,-0.64146 2.65568,-0.64146 2.25796,0 3.3228,1.12898 1.07766,1.11615 1.07766,3.759 v 9.24996 h -2.32211 v -8.80094 q 0,-1.46254 -0.26941,-2.16816 -0.26942,-0.71844 -0.88523,-1.052 -0.61581,-0.33356 -1.7063,-0.33356 -1.62933,0 -2.61719,1.12898 -0.97503,1.12898 -0.97503,3.04055 v 8.18513 h -2.30928 v -19.03875 h 2.30928 v 4.95212 q 0,0.78259 -0.0513,1.6165 -0.0385,0.83391 -0.0513,0.9622 z"
     id="text7"
     style="font-size:26.2745px;font-family:Arial, sans-serif;fill:#ffffff;stroke-width:1.09477"
     aria-label="Built with" /><path
     d="m 588.57394,517.75818 q 0,7.26141 -5.10608,7.26141 -1.57801,0 -2.63002,-0.56449 -1.03918,-0.57732 -1.69347,-1.84743 h -0.0257 q 0,0.39771 -0.0513,1.21879 -0.0513,0.80825 -0.077,0.93654 h -2.23231 q 0.077,-0.69278 0.077,-2.86094 v -16.17781 h 2.30928 v 5.42681 q 0,0.83391 -0.0513,1.96289 h 0.0513 q 0.64147,-1.33425 1.69347,-1.91157 1.06484,-0.57732 2.63002,-0.57732 2.63001,0 3.86163,1.77045 1.24445,1.77045 1.24445,5.36267 z m -2.42475,0.077 q 0,-2.91226 -0.76976,-4.16953 -0.76976,-1.25728 -2.50172,-1.25728 -1.95006,0 -2.84812,1.33425 -0.88522,1.33425 -0.88522,4.23369 0,2.73265 0.87239,4.04124 0.8724,1.29576 2.83529,1.29576 1.74479,0 2.51455,-1.28293 0.78259,-1.29576 0.78259,-4.1952 z m 5.97848,12.38032 q -0.94938,0 -1.59084,-0.14112 v -1.73196 q 0.48751,0.077 1.07766,0.077 2.15533,0 3.41261,-3.16884 l 0.2181,-0.55167 -5.50379,-13.8172 h 2.46323 l 2.92509,7.67195 q 0.0642,0.17961 0.15396,0.43619 0.0898,0.24376 0.57732,1.66782 0.48751,1.42406 0.526,1.59084 l 0.89805,-2.52738 3.04056,-8.83942 h 2.43757 l -5.337,13.88135 q -0.85957,2.21948 -1.60367,3.29714 -0.7441,1.0905 -1.65499,1.6165 -0.89805,0.53883 -2.03986,0.53883 z m 31.50887,-5.45247 -2.06553,-5.28569 h -8.23644 l -2.07835,5.28569 h -2.54021 l 7.37687,-18.07655 h 2.78397 l 7.26141,18.07655 z m -6.18375,-16.22912 -0.11546,0.35922 q -0.32073,1.06484 -0.94937,2.73265 l -2.30928,5.93999 h 6.76106 l -2.32211,-5.96565 q -0.35922,-0.88522 -0.71844,-2.00138 z m 18.58973,16.22912 v -8.80093 q 0,-2.01421 -0.55167,-2.78397 -0.55166,-0.76976 -1.98854,-0.76976 -1.47538,0 -2.33494,1.12898 -0.85957,1.12899 -0.85957,3.18168 v 8.044 h -2.29645 v -10.91777 q 0,-2.42475 -0.077,-2.96358 h 2.18099 q 0.0128,0.0642 0.0257,0.34639 0.0128,0.28225 0.0257,0.6543 0.0256,0.35922 0.0513,1.37274 h 0.0385 q 0.7441,-1.47538 1.7063,-2.0527 0.96221,-0.57732 2.34777,-0.57732 1.57801,0 2.4889,0.62864 0.92371,0.62864 1.28293,2.00138 h 0.0385 q 0.71844,-1.3984 1.73196,-2.01421 1.02635,-0.61581 2.47607,-0.61581 2.10401,0 3.05338,1.14181 0.9622,1.14182 0.9622,3.74617 v 9.24996 h -2.28362 v -8.80093 q 0,-2.01421 -0.55166,-2.78397 -0.55167,-0.76976 -1.98855,-0.76976 -1.51387,0 -2.3606,1.12898 -0.83391,1.11616 -0.83391,3.18168 v 8.044 z m 13.79155,-16.8321 v -2.20665 h 2.30928 v 2.20665 z m 0,16.8321 v -13.88135 h 2.30928 V 524.763 Z m 5.90149,0 v -10.64836 q 0,-1.46254 -0.077,-3.23299 h 2.18099 q 0.10263,2.3606 0.10263,2.83528 h 0.0513 q 0.55166,-1.78328 1.2701,-2.43757 0.71845,-0.6543 2.02704,-0.6543 0.46186,0 0.93654,0.1283 v 2.11684 q -0.46185,-0.1283 -1.23162,-0.1283 -1.43688,0 -2.19381,1.24445 -0.75694,1.23162 -0.75694,3.5409 v 7.23575 z m 8.74961,0 v -10.64836 q 0,-1.46254 -0.077,-3.23299 h 2.18099 q 0.10263,2.3606 0.10263,2.83528 h 0.0513 q 0.55166,-1.78328 1.2701,-2.43757 0.71845,-0.6543 2.02704,-0.6543 0.46186,0 0.93654,0.1283 v 2.11684 q -0.46185,-0.1283 -1.23161,-0.1283 -1.43689,0 -2.19382,1.24445 -0.75693,1.23162 -0.75693,3.5409 v 7.23575 z m 10.46875,-6.45316 q 0,2.38626 0.98786,3.68202 0.98786,1.29577 2.88661,1.29577 1.50103,0 2.39908,-0.60298 0.91089,-0.60298 1.23162,-1.5267 l 2.02704,0.57732 q -1.24445,3.28432 -5.65774,3.28432 -3.07905,0 -4.69554,-1.8346 -1.60367,-1.8346 -1.60367,-5.45247 0,-3.43827 1.60367,-5.27286 1.61649,-1.8346 4.60573,-1.8346 6.1196,0 6.1196,7.37688 v 0.3079 z m 7.518,-1.77045 q -0.19244,-2.19382 -1.11615,-3.19451 -0.92372,-1.01352 -2.65568,-1.01352 -1.68064,0 -2.6685,1.12899 -0.97503,1.11615 -1.05201,3.07904 z m 4.61857,8.22361 v -1.75762 l 7.76175,-10.34045 h -7.32556 v -1.78328 h 10.05821 v 1.75762 l -7.77458,10.34045 h 8.044 v 1.78328 z m 17.38375,0.25659 q -2.09118,0 -3.14319,-1.10333 -1.052,-1.10332 -1.052,-3.02772 0,-2.15533 1.41123,-3.30997 1.42405,-1.15464 4.58007,-1.23162 l 3.11753,-0.0513 v -0.75693 q 0,-1.69347 -0.71844,-2.42475 -0.71844,-0.73127 -2.25796,-0.73127 -1.55236,0 -2.25797,0.52601 -0.70561,0.526 -0.84674,1.68064 l -2.41191,-0.2181 q 0.59015,-3.74617 5.56793,-3.74617 2.61719,0 3.93861,1.20596 1.32142,1.19313 1.32142,3.46392 v 5.97848 q 0,1.02635 0.26942,1.55235 0.26942,0.51317 1.02635,0.51317 0.33356,0 0.75693,-0.0898 v 1.43688 q -0.8724,0.20527 -1.78328,0.20527 -1.28293,0 -1.87308,-0.66712 -0.57732,-0.67996 -0.6543,-2.11684 h -0.077 q -0.88522,1.59083 -2.06552,2.25796 -1.16747,0.6543 -2.84812,0.6543 z m 0.52601,-1.73196 q 1.2701,0 2.25796,-0.57732 0.98786,-0.57733 1.55235,-1.57801 0.57732,-1.01352 0.57732,-2.07836 v -1.14181 l -2.52738,0.0513 q -1.62932,0.0257 -2.47606,0.33356 -0.83391,0.3079 -1.28294,0.94937 -0.44902,0.64147 -0.44902,1.68065 0,1.12898 0.60298,1.74479 0.61581,0.61581 1.74479,0.61581 z m 25.56889,-6.01697 v 7.49234 h -2.43758 v -7.49234 l -6.9535,-10.58421 h 2.69416 l 5.50379,8.60849 5.47813,-8.60849 h 2.69416 z m 10.91778,7.74893 q -2.09119,0 -3.14319,-1.10333 -1.05201,-1.10332 -1.05201,-3.02772 0,-2.15533 1.41123,-3.30997 1.42406,-1.15464 4.58008,-1.23162 l 3.11753,-0.0513 v -0.75693 q 0,-1.69347 -0.71845,-2.42475 -0.71844,-0.73127 -2.25796,-0.73127 -1.55235,0 -2.25797,0.52601 -0.70561,0.526 -0.84673,1.68064 l -2.41192,-0.2181 q 0.59015,-3.74617 5.56794,-3.74617 2.61718,0 3.9386,1.20596 1.32143,1.19313 1.32143,3.46392 v 5.97848 q 0,1.02635 0.26941,1.55235 0.26942,0.51317 1.02635,0.51317 0.33356,0 0.75693,-0.0898 v 1.43688 q -0.87239,0.20527 -1.78328,0.20527 -1.28293,0 -1.87308,-0.66712 -0.57732,-0.67996 -0.6543,-2.11684 h -0.077 q -0.88523,1.59083 -2.06553,2.25796 -1.16747,0.6543 -2.84811,0.6543 z m 0.526,-1.73196 q 1.27011,0 2.25796,-0.57732 0.98786,-0.57733 1.55236,-1.57801 0.57732,-1.01352 0.57732,-2.07836 v -1.14181 l -2.52738,0.0513 q -1.62933,0.0257 -2.47607,0.33356 -0.83391,0.3079 -1.28293,0.94937 -0.44903,0.64147 -0.44903,1.68065 0,1.12898 0.60298,1.74479 0.61581,0.61581 1.74479,0.61581 z m 10.59704,1.47537 v -10.64836 q 0,-1.46254 -0.077,-3.23299 h 2.18099 q 0.10264,2.3606 0.10264,2.83528 h 0.0513 q 0.55167,-1.78328 1.27011,-2.43757 0.71844,-0.6543 2.02704,-0.6543 0.46185,0 0.93654,0.1283 v 2.11684 q -0.46186,-0.1283 -1.23162,-0.1283 -1.43689,0 -2.19382,1.24445 -0.75693,1.23162 -0.75693,3.5409 v 7.23575 z m 12.23919,0.25659 q -2.09119,0 -3.14319,-1.10333 -1.05201,-1.10332 -1.05201,-3.02772 0,-2.15533 1.41123,-3.30997 1.42405,-1.15464 4.58007,-1.23162 l 3.11753,-0.0513 v -0.75693 q 0,-1.69347 -0.71844,-2.42475 -0.71844,-0.73127 -2.25796,-0.73127 -1.55235,0 -2.25797,0.52601 -0.70561,0.526 -0.84674,1.68064 l -2.41191,-0.2181 q 0.59015,-3.74617 5.56793,-3.74617 2.61719,0 3.93861,1.20596 1.32143,1.19313 1.32143,3.46392 v 5.97848 q 0,1.02635 0.26941,1.55235 0.26942,0.51317 1.02635,0.51317 0.33356,0 0.75693,-0.0898 v 1.43688 q -0.87239,0.20527 -1.78328,0.20527 -1.28293,0 -1.87308,-0.66712 -0.57732,-0.67996 -0.6543,-2.11684 h -0.077 q -0.88522,1.59083 -2.06552,2.25796 -1.16747,0.6543 -2.84811,0.6543 z m 0.526,-1.73196 q 1.2701,0 2.25796,-0.57732 0.98786,-0.57733 1.55235,-1.57801 0.57732,-1.01352 0.57732,-2.07836 v -1.14181 l -2.52738,0.0513 q -1.62932,0.0257 -2.47606,0.33356 -0.83391,0.3079 -1.28293,0.94937 -0.44903,0.64147 -0.44903,1.68065 0,1.12898 0.60298,1.74479 0.61581,0.61581 1.74479,0.61581 z m 12.84217,-10.03255 q 0.74411,-1.35991 1.78328,-1.98855 1.05201,-0.64147 2.65568,-0.64147 2.25796,0 3.3228,1.12898 1.07766,1.11616 1.07766,3.759 v 9.24996 h -2.32211 v -8.80093 q 0,-1.46255 -0.26941,-2.16816 -0.26942,-0.71844 -0.88523,-1.05201 -0.61581,-0.33356 -1.7063,-0.33356 -1.62933,0 -2.61719,1.12898 -0.97503,1.12899 -0.97503,3.04056 v 8.18512 h -2.30928 v -19.03875 h 2.30928 v 4.95213 q 0,0.78259 -0.0513,1.6165 -0.0385,0.8339 -0.0513,0.9622 z m 20.39866,11.50792 v -8.80093 q 0,-2.01421 -0.55166,-2.78397 -0.55166,-0.76976 -1.98855,-0.76976 -1.47537,0 -2.33494,1.12898 -0.85956,1.12899 -0.85956,3.18168 v 8.044 h -2.29646 v -10.91777 q 0,-2.42475 -0.077,-2.96358 h 2.18099 q 0.0128,0.0642 0.0256,0.34639 0.0128,0.28225 0.0257,0.6543 0.0257,0.35922 0.0513,1.37274 h 0.0385 q 0.7441,-1.47538 1.7063,-2.0527 0.9622,-0.57732 2.34777,-0.57732 1.57801,0 2.4889,0.62864 0.92371,0.62864 1.28293,2.00138 h 0.0385 q 0.71844,-1.3984 1.73196,-2.01421 1.02635,-0.61581 2.47606,-0.61581 2.10402,0 3.05339,1.14181 0.9622,1.14182 0.9622,3.74617 v 9.24996 h -2.28363 v -8.80093 q 0,-2.01421 -0.55166,-2.78397 -0.55166,-0.76976 -1.98855,-0.76976 -1.51386,0 -2.3606,1.12898 -0.8339,1.11616 -0.8339,3.18168 v 8.044 z m 17.34529,0.25659 q -2.09119,0 -3.14319,-1.10333 -1.05201,-1.10332 -1.05201,-3.02772 0,-2.15533 1.41123,-3.30997 1.42406,-1.15464 4.58008,-1.23162 l 3.11753,-0.0513 v -0.75693 q 0,-1.69347 -0.71845,-2.42475 -0.71844,-0.73127 -2.25796,-0.73127 -1.55235,0 -2.25797,0.52601 -0.70561,0.526 -0.84673,1.68064 l -2.41192,-0.2181 q 0.59015,-3.74617 5.56794,-3.74617 2.61718,0 3.9386,1.20596 1.32143,1.19313 1.32143,3.46392 v 5.97848 q 0,1.02635 0.26941,1.55235 0.26942,0.51317 1.02635,0.51317 0.33356,0 0.75693,-0.0898 v 1.43688 q -0.87239,0.20527 -1.78328,0.20527 -1.28293,0 -1.87308,-0.66712 -0.57732,-0.67996 -0.6543,-2.11684 h -0.077 q -0.88523,1.59083 -2.06553,2.25796 -1.16747,0.6543 -2.84811,0.6543 z m 0.526,-1.73196 q 1.27011,0 2.25796,-0.57732 0.98786,-0.57733 1.55236,-1.57801 0.57732,-1.01352 0.57732,-2.07836 v -1.14181 l -2.52739,0.0513 q -1.62932,0.0257 -2.47606,0.33356 -0.83391,0.3079 -1.28293,0.94937 -0.44903,0.64147 -0.44903,1.68065 0,1.12898 0.60298,1.74479 0.61581,0.61581 1.74479,0.61581 z m 19.30817,-0.75694 q -0.64147,1.33426 -1.70631,1.91158 -1.052,0.57732 -2.61718,0.57732 -2.63002,0 -3.87447,-1.77045 -1.23161,-1.77045 -1.23161,-5.36267 0,-7.26141 5.10608,-7.26141 1.57801,0 2.63001,0.57732 1.05201,0.57732 1.69348,1.8346 h 0.0257 l -0.0257,-1.55235 v -5.76038 h 2.30928 v 16.17781 q 0,2.16816 0.077,2.86094 h -2.20664 q -0.0385,-0.20527 -0.0898,-0.94937 -0.0385,-0.7441 -0.0385,-1.28294 z m -7.00483,-4.72119 q 0,2.91226 0.76976,4.16953 0.76976,1.25728 2.50173,1.25728 1.96289,0 2.84811,-1.35991 0.88523,-1.35991 0.88523,-4.22086 0,-2.75831 -0.88523,-4.04124 -0.88522,-1.28294 -2.82246,-1.28294 -1.74479,0 -2.52738,1.29577 -0.76976,1.28293 -0.76976,4.18237 z m 12.84216,-9.8786 v -2.20665 h 2.30929 v 2.20665 z m 0,16.8321 v -13.88135 h 2.30929 V 524.763 Z"
     id="text8"
     style="font-size:26.2745px;font-family:Arial, sans-serif;fill:#ffffff;stroke-width:1.09477"
     aria-label="by Amirreza Yarahmadi" /><path
     fill="#ea5a47"
     d="m 567.25911,513.49604 c 0,-2.88266 -2.33683,-5.2195 -5.2195,-5.2195 -1.98479,0 -3.71048,1.10804 -4.59316,2.73911 -0.88268,-1.63107 -2.60838,-2.73911 -4.59317,-2.73911 -2.88266,0 -5.2195,2.33684 -5.2195,5.2195 0,1.24012 0.43439,2.37768 1.15677,3.27313 l -0.002,10e-4 8.6577,10.7303 8.65765,-10.73025 -0.002,-10e-4 c 0.72242,-0.8955 1.15681,-2.03306 1.15681,-3.27318 z"
     id="path1"
     style="stroke-width:0.41756" /><path
     style="fill:#000000;stroke-linejoin:round;stroke-miterlimit:10"
     d="m 552.85352,507.85937 c -3.10833,0 -5.63672,2.5284 -5.63672,5.63672 0,1.33451 0.46787,2.56208 1.24414,3.52735 a 0.41760177,0.41760177 0 0 0 0.002,0.01 l 8.6582,10.72852 a 0.41760177,0.41760177 0 0 0 0.65039,0 l 8.65821,-10.72852 a 0.41760177,0.41760177 0 0 0 0.008,-0.0176 c 0.77268,-0.96416 1.23828,-2.18848 1.23828,-3.51953 0,-3.10832 -2.52838,-5.63672 -5.63672,-5.63672 -1.9469,0 -3.57915,1.06526 -4.59179,2.57032 -1.01266,-1.50506 -2.64685,-2.57031 -4.59375,-2.57032 z m 0,0.83399 c 1.82938,0 3.41463,1.02115 4.22656,2.52148 a 0.41760177,0.41760177 0 0 0 0.73437,0 c 0.81193,-1.50033 2.39523,-2.52148 4.22461,-2.52148 2.65701,0 4.80274,2.14574 4.80274,4.80273 0,1.14261 -0.39918,2.18706 -1.06446,3.01172 a 0.41760177,0.41760177 0 0 0 0,0.004 l -8.33203,10.32422 -8.32812,-10.32422 a 0.41760177,0.41760177 0 0 0 -0.002,-0.004 c -0.66523,-0.82461 -1.06445,-1.86911 -1.06445,-3.01172 0,-2.65699 2.14574,-4.80273 4.80274,-4.80273 z"
     id="path2-6" /></svg>
